NotoSansChakma-Regular.ufo
<glyph name="candrabindu_chakma" format="2">
  <unicode hex="11100"/>
  <outline>
    <contour>
      <point x="-356" y="1036" type="curve"/>
      <point x="-446" y="1036" type="line"/>
      <point x="-446" y="916"/>
      <point x="-357" y="799"/>
      <point x="-219" y="799" type="curve" smooth="yes"/>
      <point x="-81" y="799"/>
      <point x="3" y="916"/>
      <point x="3" y="1036" type="curve"/>
      <point x="-87" y="1036" type="line"/>
      <point x="-88" y="946"/>
      <point x="-139" y="872"/>
      <point x="-219" y="872" type="curve" smooth="yes"/>
      <point x="-299" y="872"/>
      <point x="-356" y="946"/>
    </contour>
    <component base="anusvara_chakma" xOffset="-5" yOffset="6"/>
  </outline>
</glyph>
<glyph name="aa_chakma" format="2">
  <advance width="1015"/>
  <unicode hex="11103"/>
  <outline>
    <contour>
      <point x="702" y="-10" type="curve" smooth="yes"/>
      <point x="854" y="-10"/>
      <point x="955" y="111"/>
      <point x="955" y="273" type="curve" smooth="yes"/>
      <point x="955" y="431"/>
      <point x="854" y="550"/>
      <point x="705" y="550" type="curve" smooth="yes"/>
      <point x="554" y="550"/>
      <point x="493" y="433"/>
      <point x="471" y="370" type="curve"/>
      <point x="546" y="301" type="line"/>
      <point x="557" y="388"/>
      <point x="610" y="483"/>
      <point x="707" y="483" type="curve" smooth="yes"/>
      <point x="802" y="483"/>
      <point x="865" y="391"/>
      <point x="865" y="271" type="curve" smooth="yes"/>
      <point x="865" y="151"/>
      <point x="800" y="57"/>
      <point x="705" y="57" type="curve" smooth="yes"/>
      <point x="677" y="57"/>
      <point x="653" y="65"/>
      <point x="633" y="76" type="curve"/>
      <point x="582" y="22" type="line"/>
      <point x="608" y="7"/>
      <point x="646" y="-10"/>
    </contour>
    <component base="daa_chakma"/>
  </outline>
</glyph>
<glyph name="i_chakma" format="2">
  <advance width="733"/>
  <unicode hex="11104"/>
  <outline>
    <contour>
      <point x="490" y="250" type="curve"/>
      <point x="499" y="249" type="line"/>
      <point x="454" y="312"/>
      <point x="394" y="333"/>
      <point x="323" y="333" type="curve" smooth="yes"/>
      <point x="203" y="333"/>
      <point x="117" y="268"/>
      <point x="117" y="174" type="curve" smooth="yes"/>
      <point x="117" y="95"/>
      <point x="179" y="47"/>
      <point x="244" y="47" type="curve" smooth="yes"/>
      <point x="350" y="47"/>
      <point x="412" y="174"/>
      <point x="412" y="289" type="curve" smooth="yes"/>
      <point x="412" y="429"/>
      <point x="331" y="529"/>
      <point x="214" y="529" type="curve" smooth="yes"/>
      <point x="143" y="529"/>
      <point x="75" y="492"/>
      <point x="22" y="431" type="curve"/>
      <point x="77" y="396" type="line"/>
      <point x="113" y="435"/>
      <point x="159" y="462"/>
      <point x="204" y="462" type="curve" smooth="yes"/>
      <point x="270" y="462"/>
      <point x="325" y="405"/>
      <point x="325" y="283" type="curve" smooth="yes"/>
      <point x="325" y="203"/>
      <point x="295" y="114"/>
      <point x="251" y="114" type="curve" smooth="yes"/>
      <point x="227" y="114"/>
      <point x="207" y="140"/>
      <point x="207" y="174" type="curve" smooth="yes"/>
      <point x="207" y="227"/>
      <point x="251" y="264"/>
      <point x="313" y="264" type="curve" smooth="yes"/>
      <point x="390" y="264"/>
      <point x="492" y="207"/>
      <point x="492" y="34" type="curve" smooth="yes"/>
      <point x="492" y="0" type="line"/>
      <point x="582" y="0" type="line"/>
      <point x="569" y="117"/>
      <point x="572" y="213"/>
      <point x="583" y="280" type="curve" smooth="yes"/>
      <point x="600" y="379"/>
      <point x="641" y="441"/>
      <point x="693" y="506" type="curve"/>
      <point x="633" y="547" type="line"/>
      <point x="553" y="461"/>
      <point x="510" y="370"/>
    </contour>
  </outline>
</glyph>
<glyph name="u_chakma" format="2">
  <advance width="606"/>
  <unicode hex="11105"/>
  <outline>
    <contour>
      <point x="546" y="219" type="curve"/>
      <point x="453" y="189" type="line"/>
      <point x="453" y="163"/>
      <point x="446" y="57"/>
      <point x="292" y="57" type="curve" smooth="yes"/>
      <point x="197" y="57"/>
      <point x="150" y="95"/>
      <point x="150" y="142" type="curve" smooth="yes"/>
      <point x="150" y="198"/>
      <point x="209" y="210"/>
      <point x="297" y="231" type="curve" smooth="yes"/>
      <point x="412" y="258"/>
      <point x="523" y="294"/>
      <point x="523" y="409" type="curve" smooth="yes"/>
      <point x="523" y="516"/>
      <point x="425" y="550"/>
      <point x="313" y="550" type="curve" smooth="yes"/>
      <point x="159" y="550"/>
      <point x="62" y="468"/>
      <point x="62" y="337" type="curve"/>
      <point x="157" y="357" type="line"/>
      <point x="157" y="416"/>
      <point x="180" y="483"/>
      <point x="309" y="483" type="curve" smooth="yes"/>
      <point x="391" y="483"/>
      <point x="433" y="458"/>
      <point x="433" y="399" type="curve" smooth="yes"/>
      <point x="433" y="345"/>
      <point x="399" y="326"/>
      <point x="288" y="298" type="curve" smooth="yes"/>
      <point x="164" y="267"/>
      <point x="60" y="241"/>
      <point x="60" y="137" type="curve" smooth="yes"/>
      <point x="60" y="38"/>
      <point x="162" y="-10"/>
      <point x="286" y="-10" type="curve" smooth="yes"/>
      <point x="489" y="-10"/>
      <point x="546" y="114"/>
    </contour>
  </outline>
</glyph>
<glyph name="khaa_chakma" format="2">
  <advance width="696"/>
  <unicode hex="11108"/>
  <outline>
    <contour>
      <point x="636" y="258" type="curve" smooth="yes"/>
      <point x="636" y="441"/>
      <point x="511" y="550"/>
      <point x="349" y="550" type="curve" smooth="yes"/>
      <point x="189" y="550"/>
      <point x="60" y="428"/>
      <point x="60" y="258" type="curve" smooth="yes"/>
      <point x="60" y="143"/>
      <point x="125" y="38"/>
      <point x="198" y="-10" type="curve"/>
      <point x="246" y="46" type="line"/>
      <point x="189" y="93"/>
      <point x="150" y="167"/>
      <point x="150" y="256" type="curve" smooth="yes"/>
      <point x="150" y="390"/>
      <point x="238" y="483"/>
      <point x="349" y="483" type="curve" smooth="yes"/>
      <point x="458" y="483"/>
      <point x="546" y="398"/>
      <point x="546" y="255" type="curve" smooth="yes"/>
      <point x="546" y="158"/>
      <point x="520" y="57"/>
      <point x="470" y="57" type="curve" smooth="yes"/>
      <point x="445" y="57"/>
      <point x="428" y="82"/>
      <point x="428" y="112" type="curve" smooth="yes"/>
      <point x="428" y="153"/>
      <point x="460" y="188"/>
      <point x="510" y="188" type="curve" smooth="yes"/>
      <point x="542.907" y="188"/>
      <point x="576.607" y="172.667"/>
      <point x="604.575" y="154.913" type="curve"/>
      <point x="612.701" y="221.832" type="line"/>
      <point x="585.438" y="239.68"/>
      <point x="548.949" y="255"/>
      <point x="504" y="255" type="curve" smooth="yes"/>
      <point x="419" y="255"/>
      <point x="350" y="198"/>
      <point x="350" y="117" type="curve" smooth="yes"/>
      <point x="350" y="42"/>
      <point x="410" y="-10"/>
      <point x="473" y="-10" type="curve" smooth="yes"/>
      <point x="572" y="-10"/>
      <point x="636" y="121"/>
    </contour>
  </outline>
</glyph>
<glyph name="gaa_chakma" format="2">
  <advance width="716"/>
  <unicode hex="11109"/>
  <outline>
    <contour>
      <point x="198" y="-10" type="curve"/>
      <point x="246" y="46" type="line"/>
      <point x="189" y="93"/>
      <point x="150" y="172"/>
      <point x="150" y="256" type="curve" smooth="yes"/>
      <point x="150" y="390"/>
      <point x="239" y="483"/>
      <point x="359" y="483" type="curve" smooth="yes"/>
      <point x="479" y="483"/>
      <point x="566" y="390"/>
      <point x="566" y="256" type="curve" smooth="yes"/>
      <point x="566" y="172"/>
      <point x="527" y="93"/>
      <point x="470" y="46" type="curve"/>
      <point x="518" y="-10" type="line"/>
      <point x="591" y="38"/>
      <point x="656" y="148"/>
      <point x="656" y="258" type="curve" smooth="yes"/>
      <point x="656" y="426"/>
      <point x="529" y="550"/>
      <point x="359" y="550" type="curve" smooth="yes"/>
      <point x="189" y="550"/>
      <point x="60" y="428"/>
      <point x="60" y="258" type="curve" smooth="yes"/>
      <point x="60" y="148"/>
      <point x="125" y="38"/>
    </contour>
  </outline>
</glyph>
<glyph name="ngaa_chakma" format="2">
  <advance width="584"/>
  <unicode hex="1110B"/>
  <outline>
    <contour>
      <point x="554" y="156" type="curve"/>
      <point x="480" y="167" type="line"/>
      <point x="451" y="109"/>
      <point x="385" y="57"/>
      <point x="297" y="57" type="curve" smooth="yes"/>
      <point x="226" y="57"/>
      <point x="150" y="91"/>
      <point x="150" y="167" type="curve" smooth="yes"/>
      <point x="150" y="223"/>
      <point x="195" y="251"/>
      <point x="268" y="251" type="curve" smooth="yes"/>
      <point x="289" y="251" type="line"/>
      <point x="289" y="318" type="line"/>
      <point x="271" y="318" type="line" smooth="yes"/>
      <point x="225" y="318"/>
      <point x="159" y="339"/>
      <point x="159" y="395" type="curve" smooth="yes"/>
      <point x="159" y="453"/>
      <point x="232" y="483"/>
      <point x="304" y="483" type="curve" smooth="yes"/>
      <point x="396" y="483"/>
      <point x="440" y="430"/>
      <point x="458" y="402" type="curve"/>
      <point x="513" y="445" type="line"/>
      <point x="476" y="498"/>
      <point x="415" y="550"/>
      <point x="296" y="550" type="curve" smooth="yes"/>
      <point x="154" y="550"/>
      <point x="69" y="478"/>
      <point x="69" y="389" type="curve" smooth="yes"/>
      <point x="69" y="345"/>
      <point x="90" y="304"/>
      <point x="147" y="277" type="curve"/>
      <point x="147" y="291" type="line"/>
      <point x="89" y="272"/>
      <point x="60" y="220"/>
      <point x="60" y="163" type="curve" smooth="yes"/>
      <point x="60" y="66"/>
      <point x="148" y="-10"/>
      <point x="288" y="-10" type="curve" smooth="yes"/>
      <point x="447" y="-10"/>
      <point x="521" y="82"/>
    </contour>
  </outline>
</glyph>
<glyph name="caa_chakma" format="2">
  <advance width="711"/>
  <unicode hex="1110C"/>
  <outline>
    <contour>
      <point x="89" y="510" type="curve"/>
      <point x="89" y="447" type="line"/>
      <point x="112" y="455"/>
      <point x="132" y="459"/>
      <point x="151" y="459" type="curve" smooth="yes"/>
      <point x="221" y="459"/>
      <point x="259" y="413"/>
      <point x="259" y="336" type="curve" smooth="yes"/>
      <point x="259" y="216"/>
      <point x="162" y="152"/>
      <point x="87" y="125" type="curve"/>
      <point x="60" y="55" type="line"/>
      <point x="108" y="29"/>
      <point x="199" y="-9"/>
      <point x="308" y="-9" type="curve" smooth="yes"/>
      <point x="496" y="-9"/>
      <point x="656" y="98"/>
      <point x="656" y="320" type="curve" smooth="yes"/>
      <point x="656" y="406"/>
      <point x="632" y="486"/>
      <point x="570" y="550" type="curve"/>
      <point x="488" y="529" type="line"/>
      <point x="544" y="466"/>
      <point x="566" y="397"/>
      <point x="566" y="322" type="curve" smooth="yes"/>
      <point x="566" y="149"/>
      <point x="441" y="58"/>
      <point x="306" y="58" type="curve" smooth="yes"/>
      <point x="246" y="58"/>
      <point x="197" y="77"/>
      <point x="172" y="88" type="curve"/>
      <point x="176" y="82" type="line"/>
      <point x="274" y="143"/>
      <point x="349" y="223"/>
      <point x="349" y="344" type="curve" smooth="yes"/>
      <point x="349" y="459"/>
      <point x="276" y="526"/>
      <point x="176" y="526" type="curve" smooth="yes"/>
      <point x="149" y="526"/>
      <point x="120" y="521"/>
    </contour>
  </outline>
</glyph>
<glyph name="chaa_chakma" format="2">
  <advance width="799"/>
  <unicode hex="1110D"/>
  <outline>
    <contour>
      <point x="151" y="510" type="curve"/>
      <point x="151" y="447" type="line"/>
      <point x="174" y="455"/>
      <point x="195" y="459"/>
      <point x="214" y="459" type="curve" smooth="yes"/>
      <point x="284" y="459"/>
      <point x="331" y="402"/>
      <point x="331" y="313" type="curve" smooth="yes"/>
      <point x="331" y="219"/>
      <point x="281" y="57"/>
      <point x="206" y="57" type="curve" smooth="yes"/>
      <point x="178" y="57"/>
      <point x="150" y="81"/>
      <point x="150" y="117" type="curve" smooth="yes"/>
      <point x="150" y="150"/>
      <point x="174" y="179"/>
      <point x="210" y="179" type="curve" smooth="yes"/>
      <point x="301" y="179"/>
      <point x="305" y="-10"/>
      <point x="488" y="-10" type="curve" smooth="yes"/>
      <point x="672" y="-10"/>
      <point x="739" y="183"/>
      <point x="739" y="313" type="curve" smooth="yes"/>
      <point x="739" y="414"/>
      <point x="699" y="493"/>
      <point x="643" y="550" type="curve"/>
      <point x="562" y="529" type="line"/>
      <point x="617" y="467"/>
      <point x="649" y="392"/>
      <point x="649" y="302" type="curve" smooth="yes"/>
      <point x="649" y="192"/>
      <point x="597" y="57"/>
      <point x="493" y="57" type="curve" smooth="yes"/>
      <point x="369" y="57"/>
      <point x="355" y="246"/>
      <point x="201" y="246" type="curve" smooth="yes"/>
      <point x="123" y="246"/>
      <point x="60" y="196"/>
      <point x="60" y="113" type="curve" smooth="yes"/>
      <point x="60" y="25"/>
      <point x="132" y="-10"/>
      <point x="194" y="-10" type="curve" smooth="yes"/>
      <point x="350" y="-10"/>
      <point x="421" y="197"/>
      <point x="421" y="315" type="curve" smooth="yes"/>
      <point x="421" y="444"/>
      <point x="338" y="526"/>
      <point x="235" y="526" type="curve" smooth="yes"/>
      <point x="210" y="526"/>
      <point x="182" y="521"/>
    </contour>
  </outline>
</glyph>
<glyph name="jaa_chakma" format="2">
  <advance width="656"/>
  <unicode hex="1110E"/>
  <outline>
    <contour>
      <point x="145" y="168" type="curve"/>
      <point x="60" y="168" type="line"/>
      <point x="78" y="85"/>
      <point x="171" y="-10"/>
      <point x="330" y="-10" type="curve" smooth="yes"/>
      <point x="485" y="-10"/>
      <point x="606" y="86"/>
      <point x="606" y="214" type="curve" smooth="yes"/>
      <point x="606" y="295"/>
      <point x="552" y="364"/>
      <point x="465" y="364" type="curve" smooth="yes"/>
      <point x="394" y="364"/>
      <point x="340" y="317"/>
      <point x="340" y="252" type="curve" smooth="yes"/>
      <point x="340" y="183"/>
      <point x="399" y="147"/>
      <point x="450" y="147" type="curve" smooth="yes"/>
      <point x="542" y="147"/>
      <point x="602" y="264"/>
      <point x="602" y="347" type="curve" smooth="yes"/>
      <point x="602" y="492"/>
      <point x="450" y="550"/>
      <point x="340" y="550" type="curve" smooth="yes"/>
      <point x="202" y="550"/>
      <point x="70" y="483"/>
      <point x="70" y="375" type="curve" smooth="yes"/>
      <point x="70" y="300"/>
      <point x="134" y="254"/>
      <point x="203" y="254" type="curve" smooth="yes"/>
      <point x="287" y="254"/>
      <point x="338" y="320"/>
      <point x="338" y="378" type="curve" smooth="yes"/>
      <point x="338" y="431"/>
      <point x="296" y="480"/>
      <point x="225" y="480" type="curve" smooth="yes"/>
      <point x="182.258" y="480"/>
      <point x="146.58" y="462.611"/>
      <point x="117.116" y="441.854" type="curve"/>
      <point x="110.604" y="401.855" type="line"/>
      <point x="137.071" y="418.775"/>
      <point x="169.141" y="431"/>
      <point x="202" y="431" type="curve" smooth="yes"/>
      <point x="242" y="431"/>
      <point x="268" y="413"/>
      <point x="268" y="377" type="curve" smooth="yes"/>
      <point x="268" y="342"/>
      <point x="242" y="321"/>
      <point x="213" y="321" type="curve" smooth="yes"/>
      <point x="183" y="321"/>
      <point x="156" y="342"/>
      <point x="156" y="376" type="curve" smooth="yes"/>
      <point x="156" y="433"/>
      <point x="235" y="483"/>
      <point x="331" y="483" type="curve" smooth="yes"/>
      <point x="411" y="483"/>
      <point x="512" y="426"/>
      <point x="512" y="287" type="curve" smooth="yes"/>
      <point x="512" y="253"/>
      <point x="504" y="207"/>
      <point x="457" y="207" type="curve" smooth="yes"/>
      <point x="428" y="207"/>
      <point x="408" y="224"/>
      <point x="408" y="253" type="curve" smooth="yes"/>
      <point x="408" y="285"/>
      <point x="433" y="303"/>
      <point x="463" y="303" type="curve" smooth="yes"/>
      <point x="506" y="303"/>
      <point x="516" y="265"/>
      <point x="516" y="228" type="curve" smooth="yes"/>
      <point x="516" y="107"/>
      <point x="414" y="57"/>
      <point x="324" y="57" type="curve" smooth="yes"/>
      <point x="203" y="57"/>
      <point x="159" y="135"/>
    </contour>
  </outline>
</glyph>
<glyph name="nyaa_chakma" format="2">
  <advance width="756"/>
  <unicode hex="11110"/>
  <outline>
    <contour>
      <point x="505" y="171" type="curve"/>
      <point x="415" y="141" type="line"/>
      <point x="407" y="119"/>
      <point x="377" y="57"/>
      <point x="289" y="57" type="curve" smooth="yes"/>
      <point x="234" y="57"/>
      <point x="179" y="82"/>
      <point x="179" y="145" type="curve" smooth="yes"/>
      <point x="179" y="278"/>
      <point x="424" y="283"/>
      <point x="424" y="436" type="curve" smooth="yes"/>
      <point x="424" y="519"/>
      <point x="352" y="550"/>
      <point x="279" y="550" type="curve" smooth="yes"/>
      <point x="168" y="550"/>
      <point x="79" y="476"/>
      <point x="70" y="377" type="curve"/>
      <point x="158" y="393" type="line"/>
      <point x="169" y="438"/>
      <point x="219" y="483"/>
      <point x="270" y="483" type="curve" smooth="yes"/>
      <point x="300" y="483"/>
      <point x="334" y="469"/>
      <point x="334" y="433" type="curve" smooth="yes"/>
      <point x="334" y="337"/>
      <point x="89" y="296"/>
      <point x="89" y="138" type="curve" smooth="yes"/>
      <point x="89" y="36"/>
      <point x="190" y="-10"/>
      <point x="282" y="-10" type="curve" smooth="yes"/>
      <point x="416" y="-10"/>
      <point x="490" y="82"/>
    </contour>
    <contour>
      <point x="615" y="545" type="curve"/>
      <point x="549" y="491" type="line"/>
      <point x="578" y="473"/>
      <point x="598" y="441"/>
      <point x="598" y="406" type="curve" smooth="yes"/>
      <point x="598" y="352"/>
      <point x="553" y="314"/>
      <point x="481" y="314" type="curve" smooth="yes"/>
      <point x="411" y="314"/>
      <point x="384" y="351"/>
      <point x="372" y="372" type="curve"/>
      <point x="289" y="351" type="line"/>
      <point x="323" y="304"/>
      <point x="395" y="247"/>
      <point x="489" y="247" type="curve" smooth="yes"/>
      <point x="600" y="247"/>
      <point x="688" y="319"/>
      <point x="688" y="415" type="curve" smooth="yes"/>
      <point x="688" y="474"/>
      <point x="654" y="519"/>
    </contour>
  </outline>
</glyph>
<glyph name="ttaa_chakma" format="2">
  <advance width="874"/>
  <unicode hex="11111"/>
  <outline>
    <contour>
      <point x="249" y="499" type="curve"/>
      <point x="221" y="450" type="line"/>
      <point x="330" y="450"/>
      <point x="430" y="405"/>
      <point x="430" y="267" type="curve" smooth="yes"/>
      <point x="430" y="181"/>
      <point x="387" y="97"/>
      <point x="290" y="97" type="curve" smooth="yes"/>
      <point x="198" y="97"/>
      <point x="150" y="168"/>
      <point x="150" y="264" type="curve" smooth="yes"/>
      <point x="150" y="451"/>
      <point x="324" y="479"/>
      <point x="450" y="479" type="curve" smooth="yes"/>
      <point x="585" y="479"/>
      <point x="697" y="459"/>
      <point x="814" y="399" type="curve"/>
      <point x="814" y="466" type="line"/>
      <point x="743" y="496"/>
      <point x="645" y="546"/>
      <point x="464" y="546" type="curve" smooth="yes"/>
      <point x="259" y="546"/>
      <point x="60" y="485"/>
      <point x="60" y="264" type="curve" smooth="yes"/>
      <point x="60" y="110"/>
      <point x="172" y="30"/>
      <point x="290" y="30" type="curve" smooth="yes"/>
      <point x="433" y="30"/>
      <point x="520" y="151"/>
      <point x="520" y="270" type="curve" smooth="yes"/>
      <point x="520" y="399"/>
      <point x="424" y="499"/>
    </contour>
    <contour>
      <point x="797" y="0" type="line"/>
      <point x="797" y="57" type="line"/>
      <point x="726" y="57"/>
      <point x="636" y="57"/>
      <point x="576" y="57" type="curve"/>
      <point x="584" y="53" type="line"/>
      <point x="636" y="105"/>
      <point x="764" y="229"/>
      <point x="787" y="256" type="curve"/>
      <point x="787" y="313" type="line"/>
      <point x="492" y="313" type="line"/>
      <point x="492" y="256" type="line"/>
      <point x="703" y="256" type="line"/>
      <point x="695" y="261" type="line"/>
      <point x="643" y="204"/>
      <point x="523" y="86"/>
      <point x="488" y="53" type="curve"/>
      <point x="488" y="0" type="line"/>
    </contour>
  </outline>
</glyph>
<glyph name="tthaa_chakma" format="2">
  <advance width="880"/>
  <unicode hex="11112"/>
  <outline>
    <contour>
      <point x="249" y="499" type="curve"/>
      <point x="221" y="450" type="line"/>
      <point x="330" y="450"/>
      <point x="430" y="405"/>
      <point x="430" y="267" type="curve" smooth="yes"/>
      <point x="430" y="181"/>
      <point x="387" y="97"/>
      <point x="290" y="97" type="curve" smooth="yes"/>
      <point x="198" y="97"/>
      <point x="150" y="168"/>
      <point x="150" y="264" type="curve" smooth="yes"/>
      <point x="150" y="451"/>
      <point x="324" y="479"/>
      <point x="450" y="479" type="curve" smooth="yes"/>
      <point x="585" y="479"/>
      <point x="697" y="459"/>
      <point x="814" y="399" type="curve"/>
      <point x="814" y="466" type="line"/>
      <point x="743" y="496"/>
      <point x="645" y="546"/>
      <point x="464" y="546" type="curve" smooth="yes"/>
      <point x="259" y="546"/>
      <point x="60" y="485"/>
      <point x="60" y="264" type="curve" smooth="yes"/>
      <point x="60" y="110"/>
      <point x="172" y="30"/>
      <point x="290" y="30" type="curve" smooth="yes"/>
      <point x="433" y="30"/>
      <point x="520" y="151"/>
      <point x="520" y="270" type="curve" smooth="yes"/>
      <point x="520" y="399"/>
      <point x="424" y="499"/>
    </contour>
    <contour>
      <point x="773" y="120" type="curve"/>
      <point x="815" y="162" type="line"/>
      <point x="773" y="196"/>
      <point x="723" y="221"/>
      <point x="666" y="221" type="curve" smooth="yes"/>
      <point x="582" y="221"/>
      <point x="526" y="165"/>
      <point x="526" y="101" type="curve" smooth="yes"/>
      <point x="526" y="37"/>
      <point x="581" y="-10"/>
      <point x="655" y="-10" type="curve" smooth="yes"/>
      <point x="746" y="-10"/>
      <point x="820" y="61"/>
      <point x="820" y="161" type="curve" smooth="yes"/>
      <point x="820" y="258"/>
      <point x="749" y="315"/>
      <point x="646" y="315" type="curve" smooth="yes"/>
      <point x="497" y="315" type="line"/>
      <point x="497" y="248" type="line"/>
      <point x="625" y="248" type="line" smooth="yes"/>
      <point x="704" y="248"/>
      <point x="732" y="207"/>
      <point x="732" y="146" type="curve" smooth="yes"/>
      <point x="732" y="74"/>
      <point x="694" y="57"/>
      <point x="662" y="57" type="curve" smooth="yes"/>
      <point x="627" y="57"/>
      <point x="612" y="78"/>
      <point x="612" y="102" type="curve" smooth="yes"/>
      <point x="612" y="131"/>
      <point x="634" y="158"/>
      <point x="678" y="158" type="curve" smooth="yes"/>
      <point x="712" y="158"/>
      <point x="745" y="142"/>
    </contour>
  </outline>
</glyph>
<glyph name="ddaa_chakma" format="2">
  <advance width="601"/>
  <unicode hex="11113"/>
  <outline>
    <contour>
      <point x="541" y="0" type="line"/>
      <point x="541" y="67" type="line"/>
      <point x="190" y="67" type="line"/>
      <point x="192" y="38" type="line"/>
      <point x="372" y="163"/>
      <point x="528" y="294"/>
      <point x="528" y="418" type="curve" smooth="yes"/>
      <point x="528" y="512"/>
      <point x="437" y="549"/>
      <point x="338" y="549" type="curve" smooth="yes"/>
      <point x="158" y="549"/>
      <point x="87" y="437"/>
      <point x="86" y="346" type="curve"/>
      <point x="176" y="366" type="line"/>
      <point x="172" y="430"/>
      <point x="225" y="483"/>
      <point x="330" y="483" type="curve" smooth="yes"/>
      <point x="387" y="483"/>
      <point x="438" y="467"/>
      <point x="438" y="413" type="curve" smooth="yes"/>
      <point x="438" y="299"/>
      <point x="204" y="90"/>
      <point x="60" y="67" type="curve"/>
      <point x="60" y="0" type="line"/>
    </contour>
  </outline>
</glyph>
<glyph name="ddhaa_chakma" format="2">
  <advance width="775"/>
  <unicode hex="11114"/>
  <outline>
    <contour>
      <point x="304" y="57" type="curve" smooth="yes"/>
      <point x="239" y="57"/>
      <point x="194" y="76"/>
      <point x="172" y="87" type="curve"/>
      <point x="176" y="81" type="line"/>
      <point x="274" y="142"/>
      <point x="349" y="225"/>
      <point x="349" y="344" type="curve" smooth="yes"/>
      <point x="349" y="461"/>
      <point x="276" y="525"/>
      <point x="176" y="525" type="curve" smooth="yes"/>
      <point x="149" y="525"/>
      <point x="119" y="520"/>
      <point x="89" y="509" type="curve"/>
      <point x="89" y="452" type="line"/>
      <point x="112" y="460"/>
      <point x="136" y="464"/>
      <point x="154" y="464" type="curve" smooth="yes"/>
      <point x="225" y="464"/>
      <point x="259" y="414"/>
      <point x="259" y="334" type="curve" smooth="yes"/>
      <point x="259" y="217"/>
      <point x="182" y="173"/>
      <point x="87" y="124" type="curve"/>
      <point x="60" y="54" type="line"/>
      <point x="105" y="31"/>
      <point x="199" y="-10"/>
      <point x="315" y="-10" type="curve" smooth="yes"/>
      <point x="563" y="-10"/>
      <point x="715" y="170"/>
      <point x="715" y="385" type="curve" smooth="yes"/>
      <point x="715" y="508"/>
      <point x="649" y="550"/>
      <point x="573" y="550" type="curve" smooth="yes"/>
      <point x="488" y="550"/>
      <point x="432" y="498"/>
      <point x="432" y="429" type="curve" smooth="yes"/>
      <point x="432" y="351"/>
      <point x="498" y="323"/>
      <point x="551" y="323" type="curve" smooth="yes"/>
      <point x="602.866" y="323"/>
      <point x="645.913" y="350.561"/>
      <point x="680.928" y="385.914" type="curve"/>
      <point x="663.046" y="434.531" type="line"/>
      <point x="631.302" y="408.305"/>
      <point x="598.261" y="390"/>
      <point x="567" y="390" type="curve" smooth="yes"/>
      <point x="543" y="390"/>
      <point x="516" y="401"/>
      <point x="516" y="433" type="curve" smooth="yes"/>
      <point x="516" y="462"/>
      <point x="538" y="483"/>
      <point x="570" y="483" type="curve" smooth="yes"/>
      <point x="601" y="483"/>
      <point x="625" y="464"/>
      <point x="625" y="388" type="curve" smooth="yes"/>
      <point x="625" y="190"/>
      <point x="472" y="57"/>
    </contour>
  </outline>
</glyph>
<glyph name="nnaa_chakma" format="2">
  <advance width="1012"/>
  <unicode hex="11115"/>
  <outline>
    <contour>
      <point x="746" y="46" type="curve"/>
      <point x="794" y="-10" type="line"/>
      <point x="883" y="62"/>
      <point x="952" y="169"/>
      <point x="952" y="296" type="curve" smooth="yes"/>
      <point x="952" y="469"/>
      <point x="847" y="550"/>
      <point x="729" y="550" type="curve" smooth="yes"/>
      <point x="637" y="550"/>
      <point x="549" y="501"/>
      <point x="549" y="387" type="curve" smooth="yes"/>
      <point x="549" y="329"/>
      <point x="572" y="298"/>
      <point x="572" y="245" type="curve" smooth="yes"/>
      <point x="572" y="192"/>
      <point x="549" y="168"/>
      <point x="506" y="168" type="curve" smooth="yes"/>
      <point x="461" y="168"/>
      <point x="440" y="194"/>
      <point x="440" y="245" type="curve" smooth="yes"/>
      <point x="440" y="300"/>
      <point x="463" y="327"/>
      <point x="463" y="387" type="curve" smooth="yes"/>
      <point x="463" y="501"/>
      <point x="381" y="550"/>
      <point x="289" y="550" type="curve" smooth="yes"/>
      <point x="171" y="550"/>
      <point x="60" y="469"/>
      <point x="60" y="296" type="curve" smooth="yes"/>
      <point x="60" y="169"/>
      <point x="126" y="62"/>
      <point x="215" y="-10" type="curve"/>
      <point x="263" y="46" type="line"/>
      <point x="200" y="98"/>
      <point x="150" y="181"/>
      <point x="150" y="288" type="curve" smooth="yes"/>
      <point x="150" y="414"/>
      <point x="212" y="483"/>
      <point x="286" y="483" type="curve" smooth="yes"/>
      <point x="338" y="483"/>
      <point x="376" y="450"/>
      <point x="376" y="378" type="curve" smooth="yes"/>
      <point x="376" y="322"/>
      <point x="352" y="284"/>
      <point x="352" y="236" type="curve" smooth="yes"/>
      <point x="352" y="146"/>
      <point x="430" y="101"/>
      <point x="506" y="101" type="curve" smooth="yes"/>
      <point x="586" y="101"/>
      <point x="660" y="149"/>
      <point x="660" y="236" type="curve" smooth="yes"/>
      <point x="660" y="287"/>
      <point x="636" y="320"/>
      <point x="636" y="378" type="curve" smooth="yes"/>
      <point x="636" y="448"/>
      <point x="674" y="483"/>
      <point x="726" y="483" type="curve" smooth="yes"/>
      <point x="800" y="483"/>
      <point x="862" y="414"/>
      <point x="862" y="288" type="curve" smooth="yes"/>
      <point x="862" y="181"/>
      <point x="809" y="98"/>
    </contour>
  </outline>
</glyph>
<glyph name="taa_chakma" format="2">
  <advance width="1045"/>
  <unicode hex="11116"/>
  <outline>
    <contour>
      <point x="732" y="-10" type="curve" smooth="yes"/>
      <point x="884" y="-10"/>
      <point x="985" y="111"/>
      <point x="985" y="273" type="curve" smooth="yes"/>
      <point x="985" y="431"/>
      <point x="884" y="550"/>
      <point x="735" y="550" type="curve" smooth="yes"/>
      <point x="584" y="550"/>
      <point x="523" y="433"/>
      <point x="501" y="370" type="curve"/>
      <point x="576" y="301" type="line"/>
      <point x="587" y="388"/>
      <point x="640" y="483"/>
      <point x="737" y="483" type="curve" smooth="yes"/>
      <point x="832" y="483"/>
      <point x="895" y="391"/>
      <point x="895" y="271" type="curve" smooth="yes"/>
      <point x="895" y="151"/>
      <point x="830" y="57"/>
      <point x="735" y="57" type="curve" smooth="yes"/>
      <point x="707" y="57"/>
      <point x="683" y="65"/>
      <point x="663" y="76" type="curve"/>
      <point x="612" y="22" type="line"/>
      <point x="638" y="7"/>
      <point x="676" y="-10"/>
    </contour>
    <component base="waa_chakma"/>
  </outline>
</glyph>
<glyph name="thaa_chakma" format="2">
  <advance width="1066"/>
  <unicode hex="11117"/>
  <outline>
    <contour>
      <point x="317" y="550" type="curve" smooth="yes"/>
      <point x="157" y="550"/>
      <point x="60" y="431"/>
      <point x="60" y="271" type="curve" smooth="yes"/>
      <point x="60" y="111"/>
      <point x="157" y="-10"/>
      <point x="317" y="-10" type="curve" smooth="yes"/>
      <point x="477" y="-10"/>
      <point x="578" y="111"/>
      <point x="578" y="271" type="curve" smooth="yes"/>
      <point x="578" y="431"/>
      <point x="477" y="550"/>
    </contour>
    <contour>
      <point x="317" y="57" type="curve" smooth="yes"/>
      <point x="211" y="57"/>
      <point x="150" y="151"/>
      <point x="150" y="271" type="curve" smooth="yes"/>
      <point x="150" y="391"/>
      <point x="211" y="483"/>
      <point x="317" y="483" type="curve" smooth="yes"/>
      <point x="423" y="483"/>
      <point x="488" y="391"/>
      <point x="488" y="271" type="curve" smooth="yes"/>
      <point x="488" y="151"/>
      <point x="423" y="57"/>
    </contour>
    <contour>
      <point x="745" y="550" type="curve" smooth="yes"/>
      <point x="585" y="550"/>
      <point x="488" y="431"/>
      <point x="488" y="271" type="curve" smooth="yes"/>
      <point x="488" y="111"/>
      <point x="585" y="-10"/>
      <point x="745" y="-10" type="curve" smooth="yes"/>
      <point x="905" y="-10"/>
      <point x="1006" y="111"/>
      <point x="1006" y="271" type="curve" smooth="yes"/>
      <point x="1006" y="431"/>
      <point x="905" y="550"/>
    </contour>
    <contour>
      <point x="745" y="57" type="curve" smooth="yes"/>
      <point x="639" y="57"/>
      <point x="578" y="151"/>
      <point x="578" y="271" type="curve" smooth="yes"/>
      <point x="578" y="391"/>
      <point x="639" y="483"/>
      <point x="745" y="483" type="curve" smooth="yes"/>
      <point x="851" y="483"/>
      <point x="916" y="391"/>
      <point x="916" y="271" type="curve" smooth="yes"/>
      <point x="916" y="151"/>
      <point x="851" y="57"/>
    </contour>
  </outline>
</glyph>
<glyph name="daa_chakma" format="2">
  <advance width="613"/>
  <unicode hex="11118"/>
  <outline>
    <contour>
      <point x="286" y="-10" type="curve" smooth="yes"/>
      <point x="447" y="-10"/>
      <point x="553" y="108"/>
      <point x="553" y="269" type="curve" smooth="yes"/>
      <point x="553" y="432"/>
      <point x="451" y="551"/>
      <point x="290" y="551" type="curve" smooth="yes"/>
      <point x="174" y="551"/>
      <point x="81" y="482"/>
      <point x="50" y="375" type="curve"/>
      <point x="136" y="361" type="line"/>
      <point x="152" y="422"/>
      <point x="203" y="484"/>
      <point x="289" y="484" type="curve" smooth="yes"/>
      <point x="398" y="484"/>
      <point x="463" y="395"/>
      <point x="463" y="270" type="curve" smooth="yes"/>
      <point x="463" y="151"/>
      <point x="396" y="57"/>
      <point x="288" y="57" type="curve" smooth="yes"/>
      <point x="213" y="57"/>
      <point x="161" y="105"/>
      <point x="136" y="178" type="curve"/>
      <point x="50" y="153" type="line"/>
      <point x="85" y="56"/>
      <point x="165" y="-10"/>
    </contour>
  </outline>
</glyph>
<glyph name="dhaa_chakma" format="2">
  <advance width="683"/>
  <unicode hex="11119"/>
  <outline>
    <contour>
      <point x="342" y="550" type="curve" smooth="yes"/>
      <point x="178" y="550"/>
      <point x="60" y="440"/>
      <point x="60" y="260" type="curve" smooth="yes"/>
      <point x="60" y="140"/>
      <point x="111" y="35"/>
      <point x="193" y="-10" type="curve"/>
      <point x="231" y="36"/>
      <point x="272" y="77"/>
      <point x="342" y="77" type="curve" smooth="yes"/>
      <point x="412" y="77"/>
      <point x="459" y="36"/>
      <point x="497" y="-10" type="curve"/>
      <point x="575" y="36"/>
      <point x="623" y="138"/>
      <point x="623" y="260" type="curve" smooth="yes"/>
      <point x="623" y="440"/>
      <point x="506" y="550"/>
    </contour>
    <contour>
      <point x="490" y="70" type="curve"/>
      <point x="507" y="76" type="line"/>
      <point x="478" y="102"/>
      <point x="422" y="144"/>
      <point x="342" y="144" type="curve" smooth="yes"/>
      <point x="262" y="144"/>
      <point x="205" y="102"/>
      <point x="179" y="76" type="curve"/>
      <point x="196" y="70" type="line"/>
      <point x="170" y="110"/>
      <point x="150" y="187"/>
      <point x="150" y="258" type="curve" smooth="yes"/>
      <point x="150" y="400"/>
      <point x="227" y="483"/>
      <point x="342" y="483" type="curve" smooth="yes"/>
      <point x="457" y="483"/>
      <point x="533" y="400"/>
      <point x="533" y="258" type="curve" smooth="yes"/>
      <point x="533" y="189"/>
      <point x="513" y="109"/>
    </contour>
  </outline>
</glyph>
<glyph name="naa_chakma" format="2">
  <advance width="1001"/>
  <unicode hex="1111A"/>
  <outline>
    <contour>
      <point x="745" y="46" type="curve"/>
      <point x="793" y="-10" type="line"/>
      <point x="882" y="62"/>
      <point x="941" y="169"/>
      <point x="941" y="296" type="curve" smooth="yes"/>
      <point x="941" y="435"/>
      <point x="849" y="550"/>
      <point x="709" y="550" type="curve" smooth="yes"/>
      <point x="569" y="550"/>
      <point x="473" y="434"/>
      <point x="473" y="232" type="curve" smooth="yes"/>
      <point x="473" y="100"/>
      <point x="508" y="30"/>
      <point x="578" y="30" type="curve" smooth="yes"/>
      <point x="652" y="30"/>
      <point x="737" y="111"/>
      <point x="737" y="214" type="curve" smooth="yes"/>
      <point x="737" y="336"/>
      <point x="632" y="418"/>
      <point x="504" y="418" type="curve" smooth="yes"/>
      <point x="376" y="418"/>
      <point x="274" y="335"/>
      <point x="274" y="211" type="curve" smooth="yes"/>
      <point x="274" y="108"/>
      <point x="350" y="31"/>
      <point x="430" y="31" type="curve" smooth="yes"/>
      <point x="500" y="31"/>
      <point x="537" y="89"/>
      <point x="537" y="231" type="curve" smooth="yes"/>
      <point x="537" y="437"/>
      <point x="437" y="550"/>
      <point x="297" y="550" type="curve" smooth="yes"/>
      <point x="157" y="550"/>
      <point x="60" y="445"/>
      <point x="60" y="296" type="curve" smooth="yes"/>
      <point x="60" y="169"/>
      <point x="116" y="62"/>
      <point x="205" y="-10" type="curve"/>
      <point x="253" y="46" type="line"/>
      <point x="190" y="98"/>
      <point x="150" y="181"/>
      <point x="150" y="273" type="curve" smooth="yes"/>
      <point x="150" y="393"/>
      <point x="217" y="483"/>
      <point x="300" y="483" type="curve" smooth="yes"/>
      <point x="388" y="483"/>
      <point x="471" y="383"/>
      <point x="471" y="243" type="curve" smooth="yes"/>
      <point x="471" y="167"/>
      <point x="449" y="107"/>
      <point x="432" y="98" type="curve"/>
      <point x="404" y="98"/>
      <point x="359" y="148"/>
      <point x="359" y="214" type="curve" smooth="yes"/>
      <point x="359" y="292"/>
      <point x="422" y="351"/>
      <point x="504" y="351" type="curve" smooth="yes"/>
      <point x="586" y="351"/>
      <point x="652" y="292"/>
      <point x="652" y="214" type="curve" smooth="yes"/>
      <point x="652" y="151"/>
      <point x="609" y="97"/>
      <point x="583" y="97" type="curve"/>
      <point x="567" y="107"/>
      <point x="539" y="152"/>
      <point x="539" y="243" type="curve" smooth="yes"/>
      <point x="539" y="383"/>
      <point x="620" y="483"/>
      <point x="708" y="483" type="curve" smooth="yes"/>
      <point x="791" y="483"/>
      <point x="851" y="393"/>
      <point x="851" y="273" type="curve" smooth="yes"/>
      <point x="851" y="181"/>
      <point x="808" y="98"/>
    </contour>
  </outline>
</glyph>
<glyph name="paa_chakma" format="2">
  <advance width="703"/>
  <unicode hex="1111B"/>
  <outline>
    <contour>
      <point x="352" y="-10" type="curve" smooth="yes"/>
      <point x="524" y="-10"/>
      <point x="643" y="108"/>
      <point x="643" y="278" type="curve" smooth="yes"/>
      <point x="643" y="385"/>
      <point x="591" y="491"/>
      <point x="507" y="546" type="curve"/>
      <point x="452" y="503" type="line"/>
      <point x="514" y="456"/>
      <point x="553" y="370"/>
      <point x="553" y="280" type="curve" smooth="yes"/>
      <point x="553" y="148"/>
      <point x="477" y="57"/>
      <point x="352" y="57" type="curve" smooth="yes"/>
      <point x="227" y="57"/>
      <point x="150" y="147"/>
      <point x="150" y="280" type="curve" smooth="yes"/>
      <point x="150" y="370"/>
      <point x="186" y="456"/>
      <point x="243" y="503" type="curve"/>
      <point x="188" y="546" type="line"/>
      <point x="109" y="490"/>
      <point x="60" y="388"/>
      <point x="60" y="278" type="curve" smooth="yes"/>
      <point x="60" y="109"/>
      <point x="178" y="-10"/>
    </contour>
  </outline>
</glyph>
<glyph name="phaa_chakma" format="2">
  <advance width="714"/>
  <unicode hex="1111C"/>
  <outline>
    <contour>
      <point x="572" y="437" type="line"/>
      <point x="548" y="406"/>
      <point x="517" y="380"/>
      <point x="479" y="380" type="curve" smooth="yes"/>
      <point x="442" y="380"/>
      <point x="422" y="406"/>
      <point x="422" y="432" type="curve" smooth="yes"/>
      <point x="422" y="461"/>
      <point x="445" y="483"/>
      <point x="478" y="483" type="curve" smooth="yes"/>
      <point x="537" y="483"/>
      <point x="564" y="415"/>
      <point x="564" y="315" type="curve" smooth="yes"/>
      <point x="564" y="152"/>
      <point x="481" y="57"/>
      <point x="358" y="57" type="curve" smooth="yes"/>
      <point x="239" y="57"/>
      <point x="150" y="147"/>
      <point x="150" y="280" type="curve" smooth="yes"/>
      <point x="150" y="370"/>
      <point x="186" y="456"/>
      <point x="243" y="503" type="curve"/>
      <point x="188" y="546" type="line"/>
      <point x="109" y="490"/>
      <point x="60" y="388"/>
      <point x="60" y="278" type="curve" smooth="yes"/>
      <point x="60" y="109"/>
      <point x="188" y="-10"/>
      <point x="358" y="-10" type="curve" smooth="yes"/>
      <point x="534" y="-10"/>
      <point x="654" y="117"/>
      <point x="654" y="305" type="curve" smooth="yes"/>
      <point x="654" y="447"/>
      <point x="593" y="550"/>
      <point x="476" y="550" type="curve" smooth="yes"/>
      <point x="395" y="550"/>
      <point x="338" y="500"/>
      <point x="338" y="428" type="curve" smooth="yes"/>
      <point x="338" y="354"/>
      <point x="398" y="313"/>
      <point x="462" y="313" type="curve" smooth="yes"/>
      <point x="523" y="313"/>
      <point x="574" y="349"/>
      <point x="609" y="386" type="curve"/>
    </contour>
  </outline>
</glyph>
<glyph name="bhaa_chakma" format="2">
  <advance width="956"/>
  <unicode hex="1111E"/>
  <outline>
    <contour>
      <point x="754" y="371" type="curve"/>
      <point x="804" y="307" type="line"/>
      <point x="845" y="327"/>
      <point x="896" y="371"/>
      <point x="896" y="432" type="curve" smooth="yes"/>
      <point x="896" y="473"/>
      <point x="873" y="555"/>
      <point x="710" y="555" type="curve" smooth="yes"/>
      <point x="635" y="555"/>
      <point x="543" y="538"/>
      <point x="448" y="477" type="curve"/>
      <point x="495" y="413" type="line"/>
      <point x="555" y="458"/>
      <point x="631" y="486"/>
      <point x="707" y="486" type="curve" smooth="yes"/>
      <point x="782" y="486"/>
      <point x="806" y="458"/>
      <point x="806" y="431" type="curve" smooth="yes"/>
      <point x="806" y="403"/>
      <point x="779" y="381"/>
    </contour>
    <contour>
      <point x="681" y="81" type="curve"/>
      <point x="636" y="34" type="line"/>
      <point x="668" y="4"/>
      <point x="700" y="-10"/>
      <point x="737" y="-10" type="curve" smooth="yes"/>
      <point x="820" y="-10"/>
      <point x="882" y="61"/>
      <point x="882" y="144" type="curve" smooth="yes"/>
      <point x="882" y="226"/>
      <point x="824" y="288"/>
      <point x="695" y="288" type="curve" smooth="yes"/>
      <point x="634" y="288"/>
      <point x="562" y="274"/>
      <point x="486" y="244" type="curve"/>
      <point x="473" y="177" type="line"/>
      <point x="538" y="204"/>
      <point x="613" y="221"/>
      <point x="673" y="221" type="curve" smooth="yes"/>
      <point x="757" y="221"/>
      <point x="792" y="187"/>
      <point x="792" y="139" type="curve" smooth="yes"/>
      <point x="792" y="99"/>
      <point x="767" y="57"/>
      <point x="731" y="57" type="curve" smooth="yes"/>
      <point x="714" y="57"/>
      <point x="697" y="66"/>
    </contour>
    <contour>
      <point x="286" y="-10" type="curve" smooth="yes"/>
      <point x="447" y="-10"/>
      <point x="553" y="108"/>
      <point x="553" y="269" type="curve" smooth="yes"/>
      <point x="553" y="432"/>
      <point x="451" y="551"/>
      <point x="290" y="551" type="curve" smooth="yes"/>
      <point x="174" y="551"/>
      <point x="81" y="482"/>
      <point x="50" y="375" type="curve"/>
      <point x="136" y="361" type="line"/>
      <point x="152" y="422"/>
      <point x="203" y="484"/>
      <point x="289" y="484" type="curve" smooth="yes"/>
      <point x="398" y="484"/>
      <point x="463" y="395"/>
      <point x="463" y="270" type="curve" smooth="yes"/>
      <point x="463" y="151"/>
      <point x="396" y="57"/>
      <point x="288" y="57" type="curve" smooth="yes"/>
      <point x="213" y="57"/>
      <point x="161" y="105"/>
      <point x="136" y="178" type="curve"/>
      <point x="50" y="153" type="line"/>
      <point x="85" y="56"/>
      <point x="165" y="-10"/>
    </contour>
  </outline>
</glyph>
<glyph name="maa_chakma" format="2">
  <advance width="809"/>
  <unicode hex="1111F"/>
  <outline>
    <contour>
      <point x="580" y="545" type="curve"/>
      <point x="532" y="489" type="line"/>
      <point x="596" y="444"/>
      <point x="659" y="359"/>
      <point x="659" y="251" type="curve" smooth="yes"/>
      <point x="659" y="143"/>
      <point x="601" y="57"/>
      <point x="516" y="57" type="curve" smooth="yes"/>
      <point x="431" y="57"/>
      <point x="362" y="151"/>
      <point x="362" y="233" type="curve" smooth="yes"/>
      <point x="362" y="278"/>
      <point x="384" y="302"/>
      <point x="404" y="302" type="curve" smooth="yes"/>
      <point x="424" y="302"/>
      <point x="447" y="278"/>
      <point x="447" y="233" type="curve" smooth="yes"/>
      <point x="447" y="151"/>
      <point x="380" y="57"/>
      <point x="293" y="57" type="curve" smooth="yes"/>
      <point x="208" y="57"/>
      <point x="150" y="143"/>
      <point x="150" y="251" type="curve" smooth="yes"/>
      <point x="150" y="359"/>
      <point x="213" y="444"/>
      <point x="277" y="489" type="curve"/>
      <point x="229" y="545" type="line"/>
      <point x="132" y="485"/>
      <point x="60" y="367"/>
      <point x="60" y="251" type="curve" smooth="yes"/>
      <point x="60" y="106"/>
      <point x="150" y="-10"/>
      <point x="274" y="-10" type="curve" smooth="yes"/>
      <point x="407" y="-10"/>
      <point x="537" y="116"/>
      <point x="537" y="236" type="curve" smooth="yes"/>
      <point x="537" y="312"/>
      <point x="479" y="369"/>
      <point x="404" y="369" type="curve" smooth="yes"/>
      <point x="329" y="369"/>
      <point x="272" y="313"/>
      <point x="272" y="232" type="curve" smooth="yes"/>
      <point x="272" y="108"/>
      <point x="391" y="-10"/>
      <point x="521" y="-10" type="curve" smooth="yes"/>
      <point x="645" y="-10"/>
      <point x="749" y="106"/>
      <point x="749" y="251" type="curve" smooth="yes"/>
      <point x="749" y="367"/>
      <point x="677" y="485"/>
    </contour>
  </outline>
</glyph>
<glyph name="yyaa_chakma" format="2">
  <advance width="807"/>
  <unicode hex="11120"/>
  <outline>
    <contour>
      <point x="568" y="545" type="curve"/>
      <point x="520" y="489" type="line"/>
      <point x="587" y="443"/>
      <point x="657" y="351"/>
      <point x="657" y="245" type="curve" smooth="yes"/>
      <point x="657" y="157"/>
      <point x="610" y="57"/>
      <point x="526" y="57" type="curve" smooth="yes"/>
      <point x="463" y="57"/>
      <point x="449" y="111"/>
      <point x="449" y="170" type="curve" smooth="yes"/>
      <point x="449" y="214" type="line"/>
      <point x="359" y="214" type="line"/>
      <point x="359" y="170" type="line" smooth="yes"/>
      <point x="359" y="111"/>
      <point x="335" y="57"/>
      <point x="274" y="57" type="curve" smooth="yes"/>
      <point x="192" y="57"/>
      <point x="150" y="153"/>
      <point x="150" y="245" type="curve" smooth="yes"/>
      <point x="150" y="359"/>
      <point x="223" y="447"/>
      <point x="287" y="489" type="curve"/>
      <point x="239" y="545" type="line"/>
      <point x="130" y="475"/>
      <point x="60" y="370"/>
      <point x="60" y="245" type="curve" smooth="yes"/>
      <point x="60" y="99"/>
      <point x="152" y="-10"/>
      <point x="268" y="-10" type="curve" smooth="yes"/>
      <point x="358" y="-10"/>
      <point x="419" y="53"/>
      <point x="439" y="93" type="curve"/>
      <point x="369" y="93" type="line"/>
      <point x="389" y="53"/>
      <point x="439" y="-10"/>
      <point x="528" y="-10" type="curve" smooth="yes"/>
      <point x="644" y="-10"/>
      <point x="747" y="99"/>
      <point x="747" y="245" type="curve" smooth="yes"/>
      <point x="747" y="370"/>
      <point x="665" y="485"/>
    </contour>
  </outline>
</glyph>
<glyph name="raa_chakma" format="2">
  <advance width="999"/>
  <unicode hex="11122"/>
  <outline>
    <contour>
      <point x="317" y="550" type="curve" smooth="yes"/>
      <point x="157" y="550"/>
      <point x="60" y="431"/>
      <point x="60" y="271" type="curve" smooth="yes"/>
      <point x="60" y="111"/>
      <point x="157" y="-10"/>
      <point x="317" y="-10" type="curve" smooth="yes"/>
      <point x="477" y="-10"/>
      <point x="578" y="111"/>
      <point x="578" y="271" type="curve" smooth="yes"/>
      <point x="578" y="431"/>
      <point x="477" y="550"/>
    </contour>
    <contour>
      <point x="317" y="57" type="curve" smooth="yes"/>
      <point x="211" y="57"/>
      <point x="150" y="151"/>
      <point x="150" y="271" type="curve" smooth="yes"/>
      <point x="150" y="391"/>
      <point x="211" y="483"/>
      <point x="317" y="483" type="curve" smooth="yes"/>
      <point x="423" y="483"/>
      <point x="488" y="391"/>
      <point x="488" y="271" type="curve" smooth="yes"/>
      <point x="488" y="151"/>
      <point x="423" y="57"/>
    </contour>
    <contour>
      <point x="797" y="371" type="curve"/>
      <point x="847" y="307" type="line"/>
      <point x="888" y="327"/>
      <point x="939" y="371"/>
      <point x="939" y="432" type="curve" smooth="yes"/>
      <point x="939" y="473"/>
      <point x="916" y="555"/>
      <point x="753" y="555" type="curve" smooth="yes"/>
      <point x="678" y="555"/>
      <point x="586" y="538"/>
      <point x="491" y="477" type="curve"/>
      <point x="538" y="413" type="line"/>
      <point x="598" y="458"/>
      <point x="674" y="486"/>
      <point x="750" y="486" type="curve" smooth="yes"/>
      <point x="825" y="486"/>
      <point x="849" y="458"/>
      <point x="849" y="431" type="curve" smooth="yes"/>
      <point x="849" y="403"/>
      <point x="822" y="381"/>
    </contour>
    <contour>
      <point x="724" y="81" type="curve"/>
      <point x="679" y="34" type="line"/>
      <point x="711" y="4"/>
      <point x="743" y="-10"/>
      <point x="780" y="-10" type="curve" smooth="yes"/>
      <point x="863" y="-10"/>
      <point x="925" y="61"/>
      <point x="925" y="144" type="curve" smooth="yes"/>
      <point x="925" y="226"/>
      <point x="867" y="288"/>
      <point x="738" y="288" type="curve" smooth="yes"/>
      <point x="677" y="288"/>
      <point x="605" y="274"/>
      <point x="529" y="244" type="curve"/>
      <point x="516" y="177" type="line"/>
      <point x="581" y="204"/>
      <point x="656" y="221"/>
      <point x="716" y="221" type="curve" smooth="yes"/>
      <point x="800" y="221"/>
      <point x="835" y="187"/>
      <point x="835" y="139" type="curve" smooth="yes"/>
      <point x="835" y="99"/>
      <point x="810" y="57"/>
      <point x="774" y="57" type="curve" smooth="yes"/>
      <point x="757" y="57"/>
      <point x="740" y="66"/>
    </contour>
  </outline>
</glyph>
<glyph name="waa_chakma" format="2">
  <advance width="638"/>
  <unicode hex="11124"/>
  <outline>
    <contour>
      <point x="317" y="550" type="curve" smooth="yes"/>
      <point x="157" y="550"/>
      <point x="60" y="431"/>
      <point x="60" y="271" type="curve" smooth="yes"/>
      <point x="60" y="111"/>
      <point x="157" y="-10"/>
      <point x="317" y="-10" type="curve" smooth="yes"/>
      <point x="477" y="-10"/>
      <point x="578" y="111"/>
      <point x="578" y="271" type="curve" smooth="yes"/>
      <point x="578" y="431"/>
      <point x="477" y="550"/>
    </contour>
    <contour>
      <point x="317" y="57" type="curve" smooth="yes"/>
      <point x="211" y="57"/>
      <point x="150" y="151"/>
      <point x="150" y="271" type="curve" smooth="yes"/>
      <point x="150" y="391"/>
      <point x="211" y="483"/>
      <point x="317" y="483" type="curve" smooth="yes"/>
      <point x="423" y="483"/>
      <point x="488" y="391"/>
      <point x="488" y="271" type="curve" smooth="yes"/>
      <point x="488" y="151"/>
      <point x="423" y="57"/>
    </contour>
  </outline>
</glyph>
<glyph name="saa_chakma" format="2">
  <advance width="1041"/>
  <unicode hex="11125"/>
  <outline>
    <contour>
      <point x="717" y="-10" type="curve" smooth="yes"/>
      <point x="873" y="-10"/>
      <point x="981" y="125"/>
      <point x="981" y="279" type="curve" smooth="yes"/>
      <point x="981" y="432"/>
      <point x="878" y="550"/>
      <point x="735" y="550" type="curve" smooth="yes"/>
      <point x="700" y="550"/>
      <point x="654" y="543"/>
      <point x="614" y="516" type="curve"/>
      <point x="660" y="465" type="line"/>
      <point x="681" y="477"/>
      <point x="705" y="483"/>
      <point x="730" y="483" type="curve" smooth="yes"/>
      <point x="822" y="483"/>
      <point x="891" y="400"/>
      <point x="891" y="282" type="curve" smooth="yes"/>
      <point x="891" y="159"/>
      <point x="818" y="57"/>
      <point x="719" y="57" type="curve" smooth="yes"/>
      <point x="622" y="57"/>
      <point x="561" y="153"/>
      <point x="537" y="201" type="curve"/>
      <point x="485" y="135" type="line"/>
      <point x="528" y="55"/>
      <point x="608" y="-10"/>
    </contour>
    <component base="daa_chakma"/>
  </outline>
</glyph>
<glyph name="haa_chakma" format="2">
  <advance width="1026"/>
  <unicode hex="11126"/>
  <outline>
    <contour>
      <point x="347" y="480" type="curve"/>
      <point x="330" y="550" type="line"/>
      <point x="194" y="527"/>
      <point x="60" y="427"/>
      <point x="60" y="243" type="curve" smooth="yes"/>
      <point x="60" y="113"/>
      <point x="135" y="-10"/>
      <point x="272" y="-10" type="curve" smooth="yes"/>
      <point x="415" y="-10"/>
      <point x="492" y="131"/>
      <point x="556" y="261" type="curve" smooth="yes"/>
      <point x="615" y="381"/>
      <point x="663" y="483"/>
      <point x="750" y="483" type="curve" smooth="yes"/>
      <point x="829" y="483"/>
      <point x="876" y="404"/>
      <point x="876" y="308" type="curve" smooth="yes"/>
      <point x="876" y="150"/>
      <point x="764" y="82"/>
      <point x="679" y="56" type="curve"/>
      <point x="696" y="-10" type="line"/>
      <point x="828" y="16"/>
      <point x="966" y="125"/>
      <point x="966" y="313" type="curve" smooth="yes"/>
      <point x="966" y="451"/>
      <point x="880" y="550"/>
      <point x="751" y="550" type="curve" smooth="yes"/>
      <point x="613" y="550"/>
      <point x="541" y="434"/>
      <point x="477" y="304" type="curve" smooth="yes"/>
      <point x="419" y="187"/>
      <point x="373" y="57"/>
      <point x="277" y="57" type="curve" smooth="yes"/>
      <point x="196" y="57"/>
      <point x="150" y="153"/>
      <point x="150" y="247" type="curve" smooth="yes"/>
      <point x="150" y="393"/>
      <point x="262" y="456"/>
    </contour>
  </outline>
</glyph>
<glyph name="uMatra_chakma" format="2">
  <unicode hex="1112A"/>
  <outline>
    <contour>
      <point x="-169" y="-273" type="line"/>
      <point x="-169" y="-196" type="line"/>
      <point x="-238" y="-196" type="line"/>
      <point x="-238" y="52" type="line"/>
      <point x="-316" y="52" type="line"/>
      <point x="-316" y="-273" type="line"/>
    </contour>
  </outline>
</glyph>
<glyph name="uuMatra_chakma" format="2">
  <unicode hex="1112B"/>
  <outline>
    <contour>
      <point x="-347" y="52" type="line"/>
      <point x="-425" y="52" type="line"/>
      <point x="-425" y="-273" type="line"/>
      <point x="-347" y="-273" type="line"/>
    </contour>
    <component base="uMatra_chakma" xOffset="30"/>
  </outline>
</glyph>
<glyph name="aiMatra_chakma" format="2">
  <unicode hex="1112D"/>
  <outline>
    <contour>
      <point x="-184" y="633" type="line"/>
      <point x="-122" y="591" type="line"/>
      <point x="-22" y="810" type="line"/>
      <point x="-22" y="880" type="line"/>
      <point x="-562" y="880" type="line"/>
      <point x="-562" y="810" type="line"/>
      <point x="-103" y="810" type="line"/>
    </contour>
  </outline>
</glyph>
<glyph name="oiMatra_chakma" format="2">
  <unicode hex="11130"/>
  <outline>
    <contour>
      <point x="-251" y="591" type="line"/>
      <point x="-190" y="548" type="line"/>
      <point x="-40" y="877" type="line"/>
      <point x="-121" y="877" type="line"/>
    </contour>
    <component base="aiMatra_chakma" xOffset="-190"/>
  </outline>
</glyph>
<glyph name="maayyaa_chakma" format="2">
  <unicode hex="11134"/>
  <outline>
    <contour>
      <point x="-63" y="770" type="line"/>
      <point x="-383" y="770" type="line"/>
      <point x="-383" y="700" type="line"/>
      <point x="-63" y="700" type="line"/>
    </contour>
  </outline>
</glyph>
<glyph name="one_chakma" format="2">
  <advance width="558"/>
  <unicode hex="11137"/>
  <outline>
    <contour>
      <point x="514" y="545" type="curve"/>
      <point x="514" y="631" type="line"/>
      <point x="368" y="572"/>
      <point x="71" y="403"/>
      <point x="71" y="186" type="curve" smooth="yes"/>
      <point x="71" y="67"/>
      <point x="163" y="-11"/>
      <point x="270" y="-11" type="curve" smooth="yes"/>
      <point x="375" y="-11"/>
      <point x="466" y="63"/>
      <point x="466" y="186" type="curve" smooth="yes"/>
      <point x="466" y="390"/>
      <point x="190" y="572"/>
      <point x="44" y="629" type="curve"/>
      <point x="44" y="543" type="line"/>
      <point x="162" y="503"/>
      <point x="376" y="358"/>
      <point x="376" y="186" type="curve" smooth="yes"/>
      <point x="376" y="100"/>
      <point x="329" y="56"/>
      <point x="271" y="56" type="curve" smooth="yes"/>
      <point x="210" y="56"/>
      <point x="161" y="103"/>
      <point x="161" y="186" type="curve" smooth="yes"/>
      <point x="161" y="368"/>
      <point x="437" y="520"/>
    </contour>
  </outline>
</glyph>
<glyph name="seven_chakma" format="2">
  <advance width="548"/>
  <unicode hex="1113D"/>
  <outline>
    <contour>
      <point x="127" y="24" type="curve"/>
      <point x="177" y="-20" type="line"/>
      <point x="323" y="109"/>
      <point x="488" y="294"/>
      <point x="488" y="448" type="curve" smooth="yes"/>
      <point x="488" y="561"/>
      <point x="403" y="631"/>
      <point x="290" y="631" type="curve" smooth="yes"/>
      <point x="164" y="631"/>
      <point x="60" y="553"/>
      <point x="60" y="438" type="curve" smooth="yes"/>
      <point x="60" y="338"/>
      <point x="147" y="278"/>
      <point x="248" y="278" type="curve" smooth="yes"/>
      <point x="370.656" y="278"/>
      <point x="442.549" y="365.55"/>
      <point x="474.404" y="459.244" type="curve"/>
      <point x="414.614" y="446.348" type="line"/>
      <point x="385.83" y="389.232"/>
      <point x="331.244" y="345"/>
      <point x="260" y="345" type="curve" smooth="yes"/>
      <point x="195" y="345"/>
      <point x="150" y="383"/>
      <point x="150" y="446" type="curve" smooth="yes"/>
      <point x="150" y="517"/>
      <point x="207" y="564"/>
      <point x="280" y="564" type="curve" smooth="yes"/>
      <point x="347" y="564"/>
      <point x="398" y="525"/>
      <point x="398" y="445" type="curve" smooth="yes"/>
      <point x="398" y="312"/>
      <point x="257" y="145"/>
    </contour>
  </outline>
</glyph>
<glyph name="nine_chakma" format="2">
  <advance width="993"/>
  <unicode hex="1113F"/>
  <outline>
    <contour>
      <point x="932" y="-20" type="curve"/>
      <point x="963" y="57" type="line"/>
      <point x="870" y="101"/>
      <point x="684" y="213"/>
      <point x="684" y="423" type="curve" smooth="yes"/>
      <point x="684" y="504"/>
      <point x="712" y="555"/>
      <point x="750" y="555" type="curve" smooth="yes"/>
      <point x="780" y="555"/>
      <point x="815" y="523"/>
      <point x="815" y="421" type="curve" smooth="yes"/>
      <point x="815" y="317"/>
      <point x="780" y="67"/>
      <point x="673" y="67" type="curve" smooth="yes"/>
      <point x="639" y="67"/>
      <point x="600" y="93"/>
      <point x="591" y="169" type="curve"/>
      <point x="411" y="169" type="line"/>
      <point x="411" y="102" type="line"/>
      <point x="538" y="102" type="line"/>
      <point x="566" y="25"/>
      <point x="625" y="0"/>
      <point x="672" y="0" type="curve" smooth="yes"/>
      <point x="815" y="0"/>
      <point x="905" y="226"/>
      <point x="905" y="414" type="curve" smooth="yes"/>
      <point x="905" y="588"/>
      <point x="807" y="622"/>
      <point x="752" y="622" type="curve" smooth="yes"/>
      <point x="667" y="622"/>
      <point x="594" y="554"/>
      <point x="594" y="430" type="curve" smooth="yes"/>
      <point x="594" y="253"/>
      <point x="743" y="49"/>
    </contour>
    <contour>
      <point x="618" y="427" type="line"/>
      <point x="618" y="494" type="line"/>
      <point x="451" y="494" type="line"/>
      <point x="451" y="427" type="line"/>
    </contour>
    <component base="zero_chakma"/>
  </outline>
</glyph>
<glyph name="section_chakma" format="2">
  <advance width="667"/>
  <unicode hex="11140"/>
  <outline>
    <contour>
      <point x="332" y="421" type="curve" smooth="yes"/>
      <point x="302" y="421"/>
      <point x="281" y="448"/>
      <point x="281" y="486" type="curve" smooth="yes"/>
      <point x="281" y="524"/>
      <point x="302" y="545"/>
      <point x="332" y="545" type="curve" smooth="yes"/>
      <point x="362" y="545"/>
      <point x="381" y="524"/>
      <point x="381" y="486" type="curve" smooth="yes"/>
      <point x="381" y="448"/>
      <point x="362" y="421"/>
    </contour>
    <contour>
      <point x="333" y="361" type="curve" smooth="yes"/>
      <point x="399" y="361"/>
      <point x="440" y="408"/>
      <point x="440" y="486" type="curve" smooth="yes"/>
      <point x="440" y="563"/>
      <point x="399" y="605"/>
      <point x="333" y="605" type="curve" smooth="yes"/>
      <point x="268" y="605"/>
      <point x="222" y="563"/>
      <point x="222" y="486" type="curve" smooth="yes"/>
      <point x="222" y="408"/>
      <point x="268" y="361"/>
    </contour>
    <contour>
      <point x="519" y="225" type="curve" smooth="yes"/>
      <point x="489" y="225"/>
      <point x="468" y="252"/>
      <point x="468" y="290" type="curve" smooth="yes"/>
      <point x="468" y="328"/>
      <point x="489" y="349"/>
      <point x="519" y="349" type="curve" smooth="yes"/>
      <point x="549" y="349"/>
      <point x="568" y="328"/>
      <point x="568" y="290" type="curve" smooth="yes"/>
      <point x="568" y="252"/>
      <point x="549" y="225"/>
    </contour>
    <contour>
      <point x="520" y="165" type="curve" smooth="yes"/>
      <point x="586" y="165"/>
      <point x="627" y="212"/>
      <point x="627" y="290" type="curve" smooth="yes"/>
      <point x="627" y="367"/>
      <point x="586" y="409"/>
      <point x="520" y="409" type="curve" smooth="yes"/>
      <point x="455" y="409"/>
      <point x="409" y="367"/>
      <point x="409" y="290" type="curve" smooth="yes"/>
      <point x="409" y="212"/>
      <point x="455" y="165"/>
    </contour>
    <contour>
      <point x="150" y="225" type="curve" smooth="yes"/>
      <point x="120" y="225"/>
      <point x="99" y="252"/>
      <point x="99" y="290" type="curve" smooth="yes"/>
      <point x="99" y="328"/>
      <point x="120" y="349"/>
      <point x="150" y="349" type="curve" smooth="yes"/>
      <point x="180" y="349"/>
      <point x="199" y="328"/>
      <point x="199" y="290" type="curve" smooth="yes"/>
      <point x="199" y="252"/>
      <point x="180" y="225"/>
    </contour>
    <contour>
      <point x="151" y="165" type="curve" smooth="yes"/>
      <point x="217" y="165"/>
      <point x="258" y="212"/>
      <point x="258" y="290" type="curve" smooth="yes"/>
      <point x="258" y="367"/>
      <point x="217" y="409"/>
      <point x="151" y="409" type="curve" smooth="yes"/>
      <point x="86" y="409"/>
      <point x="40" y="367"/>
      <point x="40" y="290" type="curve" smooth="yes"/>
      <point x="40" y="212"/>
      <point x="86" y="165"/>
    </contour>
    <contour>
      <point x="332" y="30" type="curve" smooth="yes"/>
      <point x="302" y="30"/>
      <point x="281" y="57"/>
      <point x="281" y="95" type="curve" smooth="yes"/>
      <point x="281" y="133"/>
      <point x="302" y="154"/>
      <point x="332" y="154" type="curve" smooth="yes"/>
      <point x="362" y="154"/>
      <point x="381" y="133"/>
      <point x="381" y="95" type="curve" smooth="yes"/>
      <point x="381" y="57"/>
      <point x="362" y="30"/>
    </contour>
    <contour>
      <point x="333" y="-30" type="curve" smooth="yes"/>
      <point x="399" y="-30"/>
      <point x="440" y="17"/>
      <point x="440" y="95" type="curve" smooth="yes"/>
      <point x="440" y="172"/>
      <point x="399" y="214"/>
      <point x="333" y="214" type="curve" smooth="yes"/>
      <point x="268" y="214"/>
      <point x="222" y="172"/>
      <point x="222" y="95" type="curve" smooth="yes"/>
      <point x="222" y="17"/>
      <point x="268" y="-30"/>
    </contour>
  </outline>
</glyph>
<glyph name="danda_chakma" format="2">
  <advance width="290"/>
  <unicode hex="11141"/>
  <outline>
    <contour>
      <point x="130" y="545" type="line"/>
      <point x="130" y="0" type="line"/>
      <point x="220" y="0" type="line"/>
      <point x="220" y="545" type="line"/>
    </contour>
  </outline>
</glyph>
<glyph name="lhaa_chakma" format="2">
  <advance width="1091"/>
  <unicode hex="11144"/>
  <outline>
    <contour>
      <point x="1022" y="-50" type="curve"/>
      <point x="1053" y="27" type="line"/>
      <point x="970" y="57"/>
      <point x="784" y="143"/>
      <point x="784" y="352" type="curve" smooth="yes"/>
      <point x="784" y="429"/>
      <point x="808" y="483"/>
      <point x="841" y="483" type="curve" smooth="yes"/>
      <point x="876" y="483"/>
      <point x="899" y="419"/>
      <point x="899" y="340" type="curve" smooth="yes"/>
      <point x="899" y="209"/>
      <point x="839" y="57"/>
      <point x="753" y="57" type="curve" smooth="yes"/>
      <point x="694" y="57"/>
      <point x="657" y="130"/>
      <point x="664" y="199" type="curve"/>
      <point x="511" y="199" type="line"/>
      <point x="511" y="132" type="line"/>
      <point x="601" y="132" type="line"/>
      <point x="613" y="65"/>
      <point x="668" y="-10"/>
      <point x="749" y="-10" type="curve" smooth="yes"/>
      <point x="877" y="-10"/>
      <point x="989" y="176"/>
      <point x="989" y="345" type="curve" smooth="yes"/>
      <point x="989" y="488"/>
      <point x="912" y="550"/>
      <point x="845" y="550" type="curve" smooth="yes"/>
      <point x="772" y="550"/>
      <point x="694" y="479"/>
      <point x="694" y="353" type="curve" smooth="yes"/>
      <point x="694" y="188"/>
      <point x="827" y="19"/>
    </contour>
    <contour>
      <point x="728" y="377" type="line"/>
      <point x="728" y="444" type="line"/>
      <point x="511" y="444" type="line"/>
      <point x="511" y="377" type="line"/>
    </contour>
    <component base="waa_chakma"/>
  </outline>
</glyph>
<glyph name="eiMatra_chakma" format="2">
  <unicode hex="11146"/>
  <outline>
    <contour>
      <point x="245" y="215" type="curve"/>
      <point x="263" y="317" type="line"/>
      <point x="218" y="361"/>
      <point x="174" y="384"/>
      <point x="119" y="384" type="curve" smooth="yes"/>
      <point x="36" y="384"/>
      <point x="-33" y="322"/>
      <point x="-33" y="253" type="curve" smooth="yes"/>
      <point x="-33" y="198"/>
      <point x="11" y="153"/>
      <point x="64" y="153" type="curve" smooth="yes"/>
      <point x="143" y="153"/>
      <point x="208" y="252"/>
      <point x="208" y="340" type="curve" smooth="yes"/>
      <point x="208" y="435"/>
      <point x="134" y="489"/>
      <point x="43" y="489" type="curve" smooth="yes"/>
      <point x="-43" y="489"/>
      <point x="-106" y="441"/>
      <point x="-146" y="382" type="curve"/>
      <point x="-146" y="319" type="line"/>
      <point x="-95" y="388"/>
      <point x="-35" y="427"/>
      <point x="24" y="427" type="curve" smooth="yes"/>
      <point x="76" y="427"/>
      <point x="126" y="397"/>
      <point x="126" y="322" type="curve" smooth="yes"/>
      <point x="126" y="273"/>
      <point x="105" y="220"/>
      <point x="70" y="220" type="curve" smooth="yes"/>
      <point x="56" y="220"/>
      <point x="41" y="228"/>
      <point x="41" y="253" type="curve" smooth="yes"/>
      <point x="41" y="290"/>
      <point x="73" y="317"/>
      <point x="120" y="317" type="curve" smooth="yes"/>
      <point x="194" y="317"/>
      <point x="245" y="250"/>
      <point x="245" y="128" type="curve"/>
      <point x="322" y="128" type="line"/>
      <point x="322" y="310"/>
      <point x="359" y="524"/>
      <point x="466" y="656" type="curve"/>
      <point x="398" y="691" type="line"/>
      <point x="303" y="565"/>
      <point x="245" y="378"/>
    </contour>
  </outline>
</glyph>
<glyph name="aa.below_raa.below" format="2">
  <outline>
    <contour>
      <point x="-104" y="197" type="curve"/>
      <point x="-158" y="156" type="line"/>
      <point x="-140" y="113"/>
      <point x="-53" y="-58"/>
      <point x="139" y="-58" type="curve" smooth="yes"/>
      <point x="322" y="-58"/>
      <point x="463" y="76"/>
      <point x="463" y="578" type="curve" smooth="yes"/>
      <point x="463" y="700" type="line"/>
      <point x="373" y="700" type="line"/>
      <point x="373" y="492" type="line" smooth="yes"/>
      <point x="373" y="217"/>
      <point x="326" y="9"/>
      <point x="145" y="9" type="curve" smooth="yes"/>
      <point x="-22" y="9"/>
      <point x="-89" y="146"/>
    </contour>
    <contour>
      <point x="287" y="144" type="curve"/>
      <point x="253" y="186" type="line"/>
      <point x="241" y="172"/>
      <point x="221" y="155"/>
      <point x="199" y="155" type="curve" smooth="yes"/>
      <point x="164" y="155"/>
      <point x="150" y="200"/>
      <point x="150" y="298" type="curve" smooth="yes"/>
      <point x="150" y="426" type="line" smooth="yes"/>
      <point x="150" y="540"/>
      <point x="94" y="570"/>
      <point x="35" y="570" type="curve" smooth="yes"/>
      <point x="-39" y="570"/>
      <point x="-105" y="523"/>
      <point x="-166" y="436" type="curve"/>
      <point x="-118" y="388" type="line"/>
      <point x="-93" y="434"/>
      <point x="-38" y="502"/>
      <point x="14" y="502" type="curve" smooth="yes"/>
      <point x="40" y="502"/>
      <point x="60" y="484"/>
      <point x="60" y="424" type="curve" smooth="yes"/>
      <point x="60" y="272" type="line" smooth="yes"/>
      <point x="60" y="135"/>
      <point x="111" y="88"/>
      <point x="180" y="88" type="curve" smooth="yes"/>
      <point x="236" y="88"/>
      <point x="271" y="122"/>
    </contour>
  </outline>
</glyph>
<glyph name="aiMatra_anusvara" format="2">
  <outline>
    <contour>
      <point x="-274" y="633" type="line"/>
      <point x="-212" y="591" type="line"/>
      <point x="-85" y="870" type="line"/>
      <point x="-85" y="940" type="line"/>
      <point x="-652" y="940" type="line"/>
      <point x="-652" y="870" type="line"/>
      <point x="-166" y="870" type="line"/>
    </contour>
    <contour>
      <point x="-425" y="689" type="curve" smooth="yes"/>
      <point x="-388" y="689"/>
      <point x="-358" y="718"/>
      <point x="-358" y="756" type="curve" smooth="yes"/>
      <point x="-358" y="792"/>
      <point x="-388" y="822"/>
      <point x="-425" y="822" type="curve" smooth="yes"/>
      <point x="-462" y="822"/>
      <point x="-491" y="792"/>
      <point x="-491" y="756" type="curve" smooth="yes"/>
      <point x="-491" y="718"/>
      <point x="-462" y="689"/>
    </contour>
  </outline>
</glyph>
<glyph name="aiMatra_anusvara.short" format="2">
  <outline>
    <contour>
      <point x="-274" y="633" type="line"/>
      <point x="-212" y="591" type="line"/>
      <point x="-85" y="870" type="line"/>
      <point x="-85" y="940" type="line"/>
      <point x="-553" y="940" type="line"/>
      <point x="-553" y="870" type="line"/>
      <point x="-166" y="870" type="line"/>
    </contour>
    <contour>
      <point x="-395" y="689" type="curve" smooth="yes"/>
      <point x="-358" y="689"/>
      <point x="-328" y="718"/>
      <point x="-328" y="756" type="curve" smooth="yes"/>
      <point x="-328" y="792"/>
      <point x="-358" y="822"/>
      <point x="-395" y="822" type="curve" smooth="yes"/>
      <point x="-432" y="822"/>
      <point x="-461" y="792"/>
      <point x="-461" y="756" type="curve" smooth="yes"/>
      <point x="-461" y="718"/>
      <point x="-432" y="689"/>
    </contour>
  </outline>
</glyph>
<glyph name="aiMatra_candrabindu" format="2">
  <outline>
    <contour>
      <point x="-374" y="633" type="line"/>
      <point x="-312" y="591" type="line"/>
      <point x="-168" y="910" type="line"/>
      <point x="-168" y="980" type="line"/>
      <point x="-739" y="980" type="line"/>
      <point x="-739" y="910" type="line"/>
      <point x="-249" y="910" type="line"/>
    </contour>
    <contour>
      <point x="-667" y="856" type="curve"/>
      <point x="-739" y="856" type="line"/>
      <point x="-739" y="761"/>
      <point x="-668" y="666"/>
      <point x="-557" y="666" type="curve" smooth="yes"/>
      <point x="-447" y="666"/>
      <point x="-380" y="761"/>
      <point x="-380" y="856" type="curve"/>
      <point x="-452" y="856" type="line"/>
      <point x="-452" y="784"/>
      <point x="-500" y="723"/>
      <point x="-560" y="725" type="curve" smooth="yes"/>
      <point x="-620" y="727"/>
      <point x="-667" y="784"/>
    </contour>
    <contour>
      <point x="-560" y="759" type="curve" smooth="yes"/>
      <point x="-530" y="759"/>
      <point x="-506" y="783"/>
      <point x="-506" y="813" type="curve" smooth="yes"/>
      <point x="-506" y="843"/>
      <point x="-530" y="867"/>
      <point x="-560" y="867" type="curve" smooth="yes"/>
      <point x="-590" y="867"/>
      <point x="-614" y="843"/>
      <point x="-614" y="813" type="curve" smooth="yes"/>
      <point x="-614" y="783"/>
      <point x="-590" y="759"/>
    </contour>
  </outline>
</glyph>
<glyph name="aiMatra_candrabindu.short" format="2">
  <outline>
    <contour>
      <point x="-374" y="633" type="line"/>
      <point x="-312" y="591" type="line"/>
      <point x="-168" y="910" type="line"/>
      <point x="-168" y="980" type="line"/>
      <point x="-689" y="980" type="line"/>
      <point x="-689" y="910" type="line"/>
      <point x="-249" y="910" type="line"/>
    </contour>
    <contour>
      <point x="-627" y="856" type="curve"/>
      <point x="-699" y="856" type="line"/>
      <point x="-699" y="761"/>
      <point x="-628" y="666"/>
      <point x="-517" y="666" type="curve" smooth="yes"/>
      <point x="-407" y="666"/>
      <point x="-340" y="761"/>
      <point x="-340" y="856" type="curve"/>
      <point x="-412" y="856" type="line"/>
      <point x="-412" y="784"/>
      <point x="-460" y="723"/>
      <point x="-520" y="725" type="curve" smooth="yes"/>
      <point x="-580" y="727"/>
      <point x="-627" y="784"/>
    </contour>
    <contour>
      <point x="-520" y="759" type="curve" smooth="yes"/>
      <point x="-490" y="759"/>
      <point x="-466" y="783"/>
      <point x="-466" y="813" type="curve" smooth="yes"/>
      <point x="-466" y="843"/>
      <point x="-490" y="867"/>
      <point x="-520" y="867" type="curve" smooth="yes"/>
      <point x="-550" y="867"/>
      <point x="-574" y="843"/>
      <point x="-574" y="813" type="curve" smooth="yes"/>
      <point x="-574" y="783"/>
      <point x="-550" y="759"/>
    </contour>
  </outline>
</glyph>
<glyph name="aiMatra_chakma.short" format="2">
  <outline>
    <contour>
      <point x="-184" y="633" type="line"/>
      <point x="-122" y="591" type="line"/>
      <point x="-22" y="810" type="line"/>
      <point x="-22" y="880" type="line"/>
      <point x="-492" y="880" type="line"/>
      <point x="-492" y="810" type="line"/>
      <point x="-103" y="810" type="line"/>
    </contour>
  </outline>
</glyph>
<glyph name="aiMatra_maayyaa" format="2">
  <outline>
    <contour>
      <point x="-274" y="633" type="line"/>
      <point x="-212" y="591" type="line"/>
      <point x="-85" y="870" type="line"/>
      <point x="-85" y="940" type="line"/>
      <point x="-652" y="940" type="line"/>
      <point x="-652" y="870" type="line"/>
      <point x="-166" y="870" type="line"/>
    </contour>
    <component base="maayyaa_chakma" xOffset="-240" yOffset="20"/>
  </outline>
</glyph>
<glyph name="aiMatra_maayyaa.short" format="2">
  <outline>
    <contour>
      <point x="-274" y="633" type="line"/>
      <point x="-212" y="591" type="line"/>
      <point x="-85" y="870" type="line"/>
      <point x="-85" y="940" type="line"/>
      <point x="-553" y="940" type="line"/>
      <point x="-553" y="870" type="line"/>
      <point x="-166" y="870" type="line"/>
    </contour>
    <contour>
      <point x="-293" y="790" type="line"/>
      <point x="-513" y="790" type="line"/>
      <point x="-513" y="720" type="line"/>
      <point x="-293" y="720" type="line"/>
    </contour>
  </outline>
</glyph>
<glyph name="aiMatra_visarga" format="2">
  <outline>
    <contour>
      <point x="-274" y="633" type="line"/>
      <point x="-212" y="591" type="line"/>
      <point x="-85" y="870" type="line"/>
      <point x="-85" y="940" type="line"/>
      <point x="-652" y="940" type="line"/>
      <point x="-652" y="870" type="line"/>
      <point x="-166" y="870" type="line"/>
    </contour>
    <contour>
      <point x="-355" y="689" type="curve" smooth="yes"/>
      <point x="-318" y="689"/>
      <point x="-288" y="719"/>
      <point x="-288" y="757" type="curve" smooth="yes"/>
      <point x="-288" y="793"/>
      <point x="-318" y="823"/>
      <point x="-355" y="823" type="curve" smooth="yes"/>
      <point x="-391" y="823"/>
      <point x="-421" y="793"/>
      <point x="-421" y="757" type="curve" smooth="yes"/>
      <point x="-421" y="719"/>
      <point x="-391" y="689"/>
    </contour>
    <contour>
      <point x="-555" y="689" type="curve" smooth="yes"/>
      <point x="-518" y="689"/>
      <point x="-488" y="719"/>
      <point x="-488" y="757" type="curve" smooth="yes"/>
      <point x="-488" y="793"/>
      <point x="-518" y="823"/>
      <point x="-555" y="823" type="curve" smooth="yes"/>
      <point x="-591" y="823"/>
      <point x="-621" y="793"/>
      <point x="-621" y="757" type="curve" smooth="yes"/>
      <point x="-621" y="719"/>
      <point x="-591" y="689"/>
    </contour>
  </outline>
</glyph>
<glyph name="aiMatra_visarga.short" format="2">
  <outline>
    <contour>
      <point x="-274" y="633" type="line"/>
      <point x="-212" y="591" type="line"/>
      <point x="-85" y="870" type="line"/>
      <point x="-85" y="940" type="line"/>
      <point x="-581" y="940" type="line"/>
      <point x="-581" y="870" type="line"/>
      <point x="-166" y="870" type="line"/>
    </contour>
    <contour>
      <point x="-345" y="689" type="curve" smooth="yes"/>
      <point x="-308" y="689"/>
      <point x="-278" y="719"/>
      <point x="-278" y="757" type="curve" smooth="yes"/>
      <point x="-278" y="793"/>
      <point x="-308" y="823"/>
      <point x="-345" y="823" type="curve" smooth="yes"/>
      <point x="-381" y="823"/>
      <point x="-411" y="793"/>
      <point x="-411" y="757" type="curve" smooth="yes"/>
      <point x="-411" y="719"/>
      <point x="-381" y="689"/>
    </contour>
    <contour>
      <point x="-515" y="689" type="curve" smooth="yes"/>
      <point x="-478" y="689"/>
      <point x="-448" y="719"/>
      <point x="-448" y="757" type="curve" smooth="yes"/>
      <point x="-448" y="793"/>
      <point x="-478" y="823"/>
      <point x="-515" y="823" type="curve" smooth="yes"/>
      <point x="-551" y="823"/>
      <point x="-581" y="793"/>
      <point x="-581" y="757" type="curve" smooth="yes"/>
      <point x="-581" y="719"/>
      <point x="-551" y="689"/>
    </contour>
  </outline>
</glyph>
<glyph name="bhaa_chakma.below" format="2">
  <outline>
    <contour>
      <point x="-59" y="-126" type="curve"/>
      <point x="-22" y="-173" type="line"/>
      <point x="17" y="-159"/>
      <point x="53" y="-118"/>
      <point x="53" y="-82" type="curve" smooth="yes"/>
      <point x="53" y="-57"/>
      <point x="36" y="0"/>
      <point x="-83" y="0" type="curve" smooth="yes"/>
      <point x="-141" y="0"/>
      <point x="-204" y="-16"/>
      <point x="-271" y="-53" type="curve"/>
      <point x="-238" y="-109" type="line"/>
      <point x="-196" y="-77"/>
      <point x="-143" y="-58"/>
      <point x="-89" y="-58" type="curve" smooth="yes"/>
      <point x="-37" y="-58"/>
      <point x="-20" y="-78"/>
      <point x="-20" y="-92" type="curve" smooth="yes"/>
      <point x="-20" y="-109"/>
      <point x="-43" y="-121"/>
    </contour>
    <contour>
      <point x="-108" y="-311" type="curve"/>
      <point x="-139" y="-357" type="line"/>
      <point x="-120" y="-374"/>
      <point x="-96" y="-385"/>
      <point x="-66" y="-385" type="curve" smooth="yes"/>
      <point x="-2" y="-385"/>
      <point x="43" y="-335"/>
      <point x="43" y="-283" type="curve" smooth="yes"/>
      <point x="43" y="-233"/>
      <point x="2" y="-189"/>
      <point x="-95" y="-189" type="curve" smooth="yes"/>
      <point x="-141" y="-189"/>
      <point x="-191" y="-199"/>
      <point x="-244" y="-220" type="curve"/>
      <point x="-254" y="-278" type="line"/>
      <point x="-201" y="-256"/>
      <point x="-149" y="-247"/>
      <point x="-114" y="-247" type="curve" smooth="yes"/>
      <point x="-55" y="-247"/>
      <point x="-30" y="-270"/>
      <point x="-30" y="-291" type="curve" smooth="yes"/>
      <point x="-30" y="-309"/>
      <point x="-49" y="-328"/>
      <point x="-73" y="-328" type="curve" smooth="yes"/>
      <point x="-85" y="-328"/>
      <point x="-96" y="-323"/>
    </contour>
    <component base="daa_chakma.below" xOffset="-185" yOffset="-4"/>
  </outline>
</glyph>
<glyph name="bottom11111" format="2">
  <advance width="600"/>
  <outline>
    <contour>
      <point x="397" y="0" type="line"/>
      <point x="397" y="57" type="line"/>
      <point x="326" y="57"/>
      <point x="236" y="57"/>
      <point x="176" y="57" type="curve"/>
      <point x="184" y="53" type="line"/>
      <point x="236" y="105"/>
      <point x="364" y="229"/>
      <point x="387" y="256" type="curve"/>
      <point x="387" y="313" type="line"/>
      <point x="92" y="313" type="line"/>
      <point x="92" y="256" type="line"/>
      <point x="303" y="256" type="line"/>
      <point x="295" y="261" type="line"/>
      <point x="243" y="204"/>
      <point x="123" y="86"/>
      <point x="88" y="53" type="curve"/>
      <point x="88" y="0" type="line"/>
    </contour>
  </outline>
</glyph>
<glyph name="ddaa_chakma.below" format="2">
  <outline>
    <contour>
      <point x="-41" y="-344" type="line"/>
      <point x="-41" y="-284" type="line"/>
      <point x="-277" y="-284" type="line"/>
      <point x="-276" y="-304" type="line"/>
      <point x="-150" y="-227"/>
      <point x="-42" y="-164"/>
      <point x="-42" y="-89" type="curve" smooth="yes"/>
      <point x="-42" y="-30"/>
      <point x="-107" y="0"/>
      <point x="-181" y="0" type="curve" smooth="yes"/>
      <point x="-310" y="0"/>
      <point x="-363" y="-86"/>
      <point x="-357" y="-150" type="curve"/>
      <point x="-289" y="-129" type="line"/>
      <point x="-284" y="-84"/>
      <point x="-252" y="-49"/>
      <point x="-194" y="-49" type="curve" smooth="yes"/>
      <point x="-157" y="-49"/>
      <point x="-122" y="-63"/>
      <point x="-122" y="-94" type="curve" smooth="yes"/>
      <point x="-122" y="-158"/>
      <point x="-277" y="-268"/>
      <point x="-378" y="-284" type="curve"/>
      <point x="-378" y="-344" type="line"/>
    </contour>
  </outline>
</glyph>
<glyph name="dhaa_chakma.below" format="2">
  <outline>
    <contour>
      <point x="-225" y="0" type="curve" smooth="yes"/>
      <point x="-344" y="0"/>
      <point x="-427" y="-78"/>
      <point x="-427" y="-196" type="curve" smooth="yes"/>
      <point x="-427" y="-273"/>
      <point x="-391" y="-334"/>
      <point x="-324" y="-365" type="curve"/>
      <point x="-297" y="-337"/>
      <point x="-272" y="-311"/>
      <point x="-225" y="-311" type="curve" smooth="yes"/>
      <point x="-178" y="-311"/>
      <point x="-148" y="-337"/>
      <point x="-121" y="-365" type="curve"/>
      <point x="-57" y="-333"/>
      <point x="-23" y="-273"/>
      <point x="-23" y="-196" type="curve" smooth="yes"/>
      <point x="-23" y="-78"/>
      <point x="-105" y="0"/>
    </contour>
    <contour>
      <point x="-131" y="-295" type="curve"/>
      <point x="-119" y="-292" type="line"/>
      <point x="-139" y="-276"/>
      <point x="-174" y="-251"/>
      <point x="-225" y="-251" type="curve" smooth="yes"/>
      <point x="-276" y="-251"/>
      <point x="-311" y="-276"/>
      <point x="-329" y="-292" type="curve"/>
      <point x="-317" y="-295" type="line"/>
      <point x="-335" y="-271"/>
      <point x="-345" y="-238"/>
      <point x="-345" y="-194" type="curve" smooth="yes"/>
      <point x="-345" y="-96"/>
      <point x="-291" y="-60"/>
      <point x="-225" y="-60" type="curve" smooth="yes"/>
      <point x="-158" y="-60"/>
      <point x="-105" y="-96"/>
      <point x="-105" y="-194" type="curve" smooth="yes"/>
      <point x="-105" y="-237"/>
      <point x="-115" y="-272"/>
    </contour>
  </outline>
</glyph>
<glyph name="doubleEMatra_chakma.alt" format="2">
  <advance width="472"/>
  <outline>
    <contour>
      <point x="229" y="-59" type="curve"/>
      <point x="263" y="1" type="line"/>
      <point x="237" y="20"/>
      <point x="150" y="91"/>
      <point x="150" y="267" type="curve" smooth="yes"/>
      <point x="150" y="443"/>
      <point x="243" y="517"/>
      <point x="263" y="533" type="curve"/>
      <point x="228" y="592" type="line"/>
      <point x="184" y="566"/>
      <point x="60" y="480"/>
      <point x="60" y="268" type="curve" smooth="yes"/>
      <point x="60" y="56"/>
      <point x="185" y="-30"/>
    </contour>
    <component base="eMatra_chakma.alt" xOffset="180"/>
  </outline>
</glyph>
<glyph name="e.below_raa.below" format="2">
  <outline>
    <contour>
      <point x="-104" y="207" type="curve"/>
      <point x="-158" y="156" type="line"/>
      <point x="-141" y="113"/>
      <point x="-79" y="-25"/>
      <point x="107" y="-25" type="curve" smooth="yes"/>
      <point x="339" y="-25"/>
      <point x="452" y="186"/>
      <point x="452" y="662" type="curve" smooth="yes"/>
      <point x="452" y="700" type="line"/>
      <point x="362" y="700" type="line"/>
      <point x="362" y="629" type="line" smooth="yes"/>
      <point x="362" y="232"/>
      <point x="302" y="42"/>
      <point x="106" y="42" type="curve" smooth="yes"/>
      <point x="-49" y="42"/>
      <point x="-91" y="153"/>
    </contour>
    <component base="e_chakma.below"/>
  </outline>
</glyph>
<glyph name="eMatra_chakma.alt" format="2">
  <advance width="250"/>
  <guideline x="286" y="553" angle="300.6773"/>
  <outline>
    <contour>
      <point x="269" y="-49" type="curve"/>
      <point x="303" y="11" type="line"/>
      <point x="251" y="36"/>
      <point x="150" y="101"/>
      <point x="150" y="267" type="curve" smooth="yes"/>
      <point x="150" y="433"/>
      <point x="251" y="498"/>
      <point x="303" y="523" type="curve"/>
      <point x="268" y="582" type="line"/>
      <point x="184" y="553"/>
      <point x="60" y="470"/>
      <point x="60" y="268" type="curve" smooth="yes"/>
      <point x="60" y="66"/>
      <point x="185" y="-20"/>
    </contour>
  </outline>
</glyph>
<glyph name="gaa_chakma.below" format="2">
  <outline>
    <contour>
      <point x="-337" y="-352" type="curve"/>
      <point x="-286" y="-313" type="line"/>
      <point x="-326" y="-280"/>
      <point x="-352" y="-238"/>
      <point x="-352" y="-187" type="curve" smooth="yes"/>
      <point x="-352" y="-112"/>
      <point x="-291" y="-60"/>
      <point x="-225" y="-60" type="curve" smooth="yes"/>
      <point x="-159" y="-60"/>
      <point x="-98" y="-112"/>
      <point x="-98" y="-187" type="curve" smooth="yes"/>
      <point x="-98" y="-238"/>
      <point x="-124" y="-280"/>
      <point x="-164" y="-313" type="curve"/>
      <point x="-105" y="-352" type="line"/>
      <point x="-53" y="-318"/>
      <point x="-16" y="-265"/>
      <point x="-16" y="-190" type="curve" smooth="yes"/>
      <point x="-16" y="-87"/>
      <point x="-101" y="0"/>
      <point x="-225" y="0" type="curve" smooth="yes"/>
      <point x="-349" y="0"/>
      <point x="-434" y="-87"/>
      <point x="-434" y="-190" type="curve" smooth="yes"/>
      <point x="-434" y="-265"/>
      <point x="-389" y="-318"/>
    </contour>
  </outline>
</glyph>
<glyph name="haa_chakma.below.alt" format="2">
  <outline>
    <contour>
      <point x="-404" y="-62" type="curve"/>
      <point x="-413" y="-3" type="line"/>
      <point x="-489" y="-15"/>
      <point x="-582" y="-75"/>
      <point x="-582" y="-193" type="curve" smooth="yes"/>
      <point x="-582" y="-294"/>
      <point x="-518" y="-352"/>
      <point x="-443" y="-352" type="curve" smooth="yes"/>
      <point x="-349" y="-352"/>
      <point x="-311" y="-263"/>
      <point x="-275" y="-175" type="curve" smooth="yes"/>
      <point x="-240" y="-90"/>
      <point x="-218" y="-60"/>
      <point x="-180" y="-60" type="curve" smooth="yes"/>
      <point x="-136" y="-60"/>
      <point x="-127" y="-101"/>
      <point x="-127" y="-137" type="curve" smooth="yes"/>
      <point x="-127" y="-210"/>
      <point x="-163" y="-259"/>
      <point x="-205" y="-295" type="curve"/>
      <point x="-178" y="-351" type="line"/>
      <point x="-105" y="-305"/>
      <point x="-45" y="-229"/>
      <point x="-45" y="-143" type="curve" smooth="yes"/>
      <point x="-45" y="-59"/>
      <point x="-98" y="0"/>
      <point x="-181" y="0" type="curve" smooth="yes"/>
      <point x="-258" y="0"/>
      <point x="-298" y="-51"/>
      <point x="-341" y="-145" type="curve" smooth="yes"/>
      <point x="-385" y="-241"/>
      <point x="-394" y="-292"/>
      <point x="-441" y="-292" type="curve" smooth="yes"/>
      <point x="-490" y="-292"/>
      <point x="-500" y="-238"/>
      <point x="-500" y="-197" type="curve" smooth="yes"/>
      <point x="-500" y="-110"/>
      <point x="-453" y="-76"/>
    </contour>
  </outline>
</glyph>
<glyph name="iiMatra_aMatra" format="2">
  <outline>
    <contour>
      <point x="-229" y="768" type="line"/>
      <point x="-165" y="755" type="line"/>
      <point x="-37" y="1032" type="line"/>
      <point x="-105" y="1064" type="line"/>
    </contour>
    <component base="iiMatra_chakma"/>
  </outline>
</glyph>
<glyph name="jaa_chakma.alt" format="2">
  <advance width="646"/>
  <outline>
    <contour>
      <point x="607" y="140" type="curve" smooth="yes"/>
      <point x="607" y="189"/>
      <point x="582" y="241"/>
      <point x="524" y="260" type="curve"/>
      <point x="524" y="246" type="line"/>
      <point x="581" y="273"/>
      <point x="602" y="316"/>
      <point x="602" y="366" type="curve" smooth="yes"/>
      <point x="602" y="505"/>
      <point x="443" y="550"/>
      <point x="334" y="550" type="curve" smooth="yes"/>
      <point x="198" y="550"/>
      <point x="70" y="483"/>
      <point x="70" y="375" type="curve" smooth="yes"/>
      <point x="70" y="300"/>
      <point x="134" y="254"/>
      <point x="203" y="254" type="curve" smooth="yes"/>
      <point x="287" y="254"/>
      <point x="338" y="320"/>
      <point x="338" y="378" type="curve" smooth="yes"/>
      <point x="338" y="431"/>
      <point x="296" y="480"/>
      <point x="225" y="480" type="curve" smooth="yes"/>
      <point x="182.258" y="480"/>
      <point x="146.58" y="462.611"/>
      <point x="117.116" y="441.854" type="curve"/>
      <point x="110.604" y="401.855" type="line"/>
      <point x="137.071" y="418.775"/>
      <point x="169.141" y="431"/>
      <point x="202" y="431" type="curve" smooth="yes"/>
      <point x="242" y="431"/>
      <point x="268" y="413"/>
      <point x="268" y="377" type="curve" smooth="yes"/>
      <point x="268" y="342"/>
      <point x="242" y="321"/>
      <point x="213" y="321" type="curve" smooth="yes"/>
      <point x="183" y="321"/>
      <point x="156" y="342"/>
      <point x="156" y="376" type="curve" smooth="yes"/>
      <point x="156" y="433"/>
      <point x="231" y="483"/>
      <point x="337" y="483" type="curve" smooth="yes"/>
      <point x="407" y="483"/>
      <point x="512" y="460"/>
      <point x="512" y="371" type="curve" smooth="yes"/>
      <point x="512" y="307"/>
      <point x="460" y="287"/>
      <point x="420" y="287" type="curve" smooth="yes"/>
      <point x="412" y="287" type="line"/>
      <point x="412" y="220" type="line"/>
      <point x="423" y="220" type="line" smooth="yes"/>
      <point x="476" y="220"/>
      <point x="517" y="184"/>
      <point x="517" y="138" type="curve" smooth="yes"/>
      <point x="517" y="71"/>
      <point x="431" y="7"/>
      <point x="309" y="7" type="curve" smooth="yes"/>
      <point x="224" y="7"/>
      <point x="147" y="38"/>
      <point x="147" y="86" type="curve" smooth="yes"/>
      <point x="147" y="112"/>
      <point x="169" y="132"/>
      <point x="204" y="132" type="curve" smooth="yes"/>
      <point x="288" y="132"/>
      <point x="374" y="16"/>
      <point x="384" y="-122" type="curve"/>
      <point x="460" y="-122" type="line"/>
      <point x="440" y="20"/>
      <point x="364" y="196"/>
      <point x="195" y="196" type="curve" smooth="yes"/>
      <point x="95" y="196"/>
      <point x="57" y="139"/>
      <point x="57" y="86" type="curve" smooth="yes"/>
      <point x="57" y="-11"/>
      <point x="185" y="-60"/>
      <point x="305" y="-60" type="curve" smooth="yes"/>
      <point x="475" y="-60"/>
      <point x="607" y="32"/>
    </contour>
  </outline>
</glyph>
<glyph name="jhaa_yyaa.below" format="2">
  <advance width="1041"/>
  <outline>
    <contour>
      <point x="606" y="169" type="curve"/>
      <point x="560" y="120" type="line"/>
      <point x="591" y="67"/>
      <point x="663" y="-15"/>
      <point x="784" y="-15" type="curve" smooth="yes"/>
      <point x="897" y="-15"/>
      <point x="981" y="56"/>
      <point x="981" y="159" type="curve" smooth="yes"/>
      <point x="981" y="700" type="line"/>
      <point x="891" y="700" type="line"/>
      <point x="891" y="175" type="line" smooth="yes"/>
      <point x="891" y="102"/>
      <point x="842" y="52"/>
      <point x="776" y="52" type="curve" smooth="yes"/>
      <point x="701" y="52"/>
      <point x="636" y="116"/>
    </contour>
    <component base="jhaa_chakma"/>
  </outline>
</glyph>
<glyph name="kaa_chakma.below" format="2">
  <outline>
    <contour>
      <point x="-451" y="-362" type="curve"/>
      <point x="-399" y="-323" type="line"/>
      <point x="-439" y="-287"/>
      <point x="-466" y="-233"/>
      <point x="-466" y="-175" type="curve" smooth="yes"/>
      <point x="-466" y="-106"/>
      <point x="-428" y="-60"/>
      <point x="-372" y="-60" type="curve" smooth="yes"/>
      <point x="-317" y="-60"/>
      <point x="-276" y="-103"/>
      <point x="-276" y="-187" type="curve"/>
      <point x="-194" y="-187" type="line"/>
      <point x="-194" y="-106"/>
      <point x="-155" y="-60"/>
      <point x="-100" y="-60" type="curve" smooth="yes"/>
      <point x="-44" y="-60"/>
      <point x="-2" y="-109"/>
      <point x="-2" y="-178" type="curve" smooth="yes"/>
      <point x="-2" y="-234"/>
      <point x="-30" y="-287"/>
      <point x="-70" y="-323" type="curve"/>
      <point x="-17" y="-362" type="line"/>
      <point x="36" y="-319"/>
      <point x="80" y="-243"/>
      <point x="80" y="-172" type="curve" smooth="yes"/>
      <point x="80" y="-77"/>
      <point x="2" y="0"/>
      <point x="-91" y="0" type="curve" smooth="yes"/>
      <point x="-151" y="0"/>
      <point x="-215" y="-32"/>
      <point x="-242" y="-113" type="curve"/>
      <point x="-227" y="-113" type="line"/>
      <point x="-250" y="-38"/>
      <point x="-319" y="0"/>
      <point x="-382" y="0" type="curve" smooth="yes"/>
      <point x="-474" y="0"/>
      <point x="-548" y="-79"/>
      <point x="-548" y="-175" type="curve" smooth="yes"/>
      <point x="-548" y="-249"/>
      <point x="-503" y="-321"/>
    </contour>
  </outline>
</glyph>
<glyph name="laa_chakma.below.alt" format="2">
  <outline>
    <contour>
      <point x="-420" y="-352" type="curve"/>
      <point x="-404" y="-292" type="line"/>
      <point x="-454" y="-271"/>
      <point x="-496" y="-229"/>
      <point x="-496" y="-161" type="curve" smooth="yes"/>
      <point x="-496" y="-108"/>
      <point x="-471" y="-60"/>
      <point x="-432" y="-60" type="curve" smooth="yes"/>
      <point x="-389" y="-60"/>
      <point x="-376" y="-123"/>
      <point x="-353" y="-185" type="curve" smooth="yes"/>
      <point x="-309" y="-304"/>
      <point x="-264" y="-352"/>
      <point x="-193" y="-352" type="curve" smooth="yes"/>
      <point x="-104" y="-352"/>
      <point x="-42" y="-274"/>
      <point x="-42" y="-178" type="curve" smooth="yes"/>
      <point x="-42" y="-65"/>
      <point x="-124" y="-16"/>
      <point x="-196" y="0" type="curve"/>
      <point x="-214" y="-56" type="line"/>
      <point x="-170" y="-70"/>
      <point x="-124" y="-110"/>
      <point x="-124" y="-186" type="curve" smooth="yes"/>
      <point x="-124" y="-231"/>
      <point x="-138" y="-292"/>
      <point x="-193" y="-292" type="curve" smooth="yes"/>
      <point x="-228" y="-292"/>
      <point x="-238" y="-266"/>
      <point x="-274" y="-167" type="curve" smooth="yes"/>
      <point x="-302" y="-89"/>
      <point x="-337" y="0"/>
      <point x="-433" y="0" type="curve" smooth="yes"/>
      <point x="-516" y="0"/>
      <point x="-578" y="-69"/>
      <point x="-578" y="-163" type="curve" smooth="yes"/>
      <point x="-578" y="-278"/>
      <point x="-499" y="-335"/>
    </contour>
  </outline>
</glyph>
<glyph name="lhaa_chakma.below" format="2">
  <outline>
    <contour>
      <point x="60" y="-376" type="curve"/>
      <point x="83" y="-320" type="line"/>
      <point x="22" y="-298"/>
      <point x="-114" y="-265"/>
      <point x="-114" y="-143" type="curve" smooth="yes"/>
      <point x="-114" y="-86"/>
      <point x="-95" y="-59"/>
      <point x="-72" y="-59" type="curve" smooth="yes"/>
      <point x="-45" y="-59"/>
      <point x="-30" y="-94"/>
      <point x="-30" y="-149" type="curve" smooth="yes"/>
      <point x="-30" y="-247"/>
      <point x="-80" y="-292"/>
      <point x="-136" y="-292" type="curve" smooth="yes"/>
      <point x="-186" y="-292"/>
      <point x="-202" y="-233"/>
      <point x="-202" y="-195" type="curve"/>
      <point x="-321" y="-195" type="line"/>
      <point x="-321" y="-255" type="line"/>
      <point x="-253" y="-255" type="line"/>
      <point x="-239" y="-295"/>
      <point x="-198" y="-351"/>
      <point x="-135" y="-351" type="curve" smooth="yes"/>
      <point x="-45" y="-351"/>
      <point x="36" y="-270"/>
      <point x="36" y="-144" type="curve" smooth="yes"/>
      <point x="36" y="-42"/>
      <point x="-20" y="0"/>
      <point x="-69" y="0" type="curve" smooth="yes"/>
      <point x="-122" y="0"/>
      <point x="-180" y="-50"/>
      <point x="-180" y="-142" type="curve" smooth="yes"/>
      <point x="-180" y="-263"/>
      <point x="-82" y="-326"/>
    </contour>
    <contour>
      <point x="-162" y="-139" type="line"/>
      <point x="-162" y="-79" type="line"/>
      <point x="-329" y="-79" type="line"/>
      <point x="-329" y="-139" type="line"/>
    </contour>
    <contour>
      <point x="-435" y="0" type="curve" smooth="yes"/>
      <point x="-525" y="0"/>
      <point x="-588" y="-83"/>
      <point x="-588" y="-175" type="curve" smooth="yes"/>
      <point x="-588" y="-267"/>
      <point x="-525" y="-352"/>
      <point x="-435" y="-352" type="curve" smooth="yes"/>
      <point x="-345" y="-352"/>
      <point x="-279" y="-267"/>
      <point x="-279" y="-175" type="curve" smooth="yes"/>
      <point x="-279" y="-83"/>
      <point x="-345" y="0"/>
    </contour>
    <contour>
      <point x="-435" y="-292" type="curve" smooth="yes"/>
      <point x="-478" y="-292"/>
      <point x="-506" y="-239"/>
      <point x="-506" y="-175" type="curve" smooth="yes"/>
      <point x="-506" y="-111"/>
      <point x="-478" y="-60"/>
      <point x="-435" y="-60" type="curve" smooth="yes"/>
      <point x="-392" y="-60"/>
      <point x="-361" y="-111"/>
      <point x="-361" y="-175" type="curve" smooth="yes"/>
      <point x="-361" y="-239"/>
      <point x="-392" y="-292"/>
    </contour>
  </outline>
</glyph>
<glyph name="naa_chakma.alt" format="2">
  <advance width="991"/>
  <outline>
    <contour>
      <point x="113" y="217" type="curve"/>
      <point x="192" y="217" type="line"/>
      <point x="172" y="268"/>
      <point x="165" y="310"/>
      <point x="165" y="341" type="curve" smooth="yes"/>
      <point x="165" y="430"/>
      <point x="221" y="483"/>
      <point x="300" y="483" type="curve" smooth="yes"/>
      <point x="409" y="483"/>
      <point x="468" y="383"/>
      <point x="468" y="243" type="curve" smooth="yes"/>
      <point x="468" y="187"/>
      <point x="460" y="68"/>
      <point x="412" y="68" type="curve" smooth="yes"/>
      <point x="381" y="68"/>
      <point x="351" y="114"/>
      <point x="351" y="165" type="curve" smooth="yes"/>
      <point x="351" y="248"/>
      <point x="429" y="291"/>
      <point x="511" y="291" type="curve" smooth="yes"/>
      <point x="593" y="291"/>
      <point x="674" y="249"/>
      <point x="674" y="166" type="curve" smooth="yes"/>
      <point x="674" y="118"/>
      <point x="647" y="67"/>
      <point x="612" y="67" type="curve" smooth="yes"/>
      <point x="563" y="67"/>
      <point x="556" y="172"/>
      <point x="556" y="243" type="curve" smooth="yes"/>
      <point x="556" y="383"/>
      <point x="620" y="483"/>
      <point x="724" y="483" type="curve" smooth="yes"/>
      <point x="809" y="483"/>
      <point x="856" y="413"/>
      <point x="856" y="324" type="curve" smooth="yes"/>
      <point x="856" y="288"/>
      <point x="848" y="254"/>
      <point x="833" y="218" type="curve"/>
      <point x="912" y="218" type="line"/>
      <point x="937" y="262"/>
      <point x="943" y="308"/>
      <point x="943" y="344" type="curve" smooth="yes"/>
      <point x="943" y="475"/>
      <point x="857" y="550"/>
      <point x="727" y="550" type="curve" smooth="yes"/>
      <point x="566" y="550"/>
      <point x="468" y="434"/>
      <point x="468" y="232" type="curve" smooth="yes"/>
      <point x="468" y="100"/>
      <point x="514" y="0"/>
      <point x="615" y="0" type="curve" smooth="yes"/>
      <point x="705" y="0"/>
      <point x="764" y="62"/>
      <point x="764" y="162" type="curve" smooth="yes"/>
      <point x="764" y="277"/>
      <point x="649" y="358"/>
      <point x="511" y="358" type="curve" smooth="yes"/>
      <point x="373" y="358"/>
      <point x="261" y="272"/>
      <point x="261" y="162" type="curve" smooth="yes"/>
      <point x="261" y="54"/>
      <point x="331" y="0"/>
      <point x="415" y="0" type="curve" smooth="yes"/>
      <point x="508" y="0"/>
      <point x="556" y="89"/>
      <point x="556" y="231" type="curve" smooth="yes"/>
      <point x="556" y="437"/>
      <point x="454" y="550"/>
      <point x="300" y="550" type="curve" smooth="yes"/>
      <point x="176" y="550"/>
      <point x="82" y="473"/>
      <point x="82" y="340" type="curve" smooth="yes"/>
      <point x="82" y="309"/>
      <point x="87" y="263"/>
    </contour>
  </outline>
</glyph>
<glyph name="nnaa_chakma.alt" format="2">
  <advance width="964"/>
  <outline>
    <contour>
      <point x="75" y="267" type="curve"/>
      <point x="155" y="267" type="line"/>
      <point x="138" y="305"/>
      <point x="131" y="333"/>
      <point x="131" y="369" type="curve" smooth="yes"/>
      <point x="131" y="446"/>
      <point x="177" y="483"/>
      <point x="238" y="483" type="curve" smooth="yes"/>
      <point x="303" y="483"/>
      <point x="331" y="440"/>
      <point x="331" y="374" type="curve" smooth="yes"/>
      <point x="331" y="281"/>
      <point x="277" y="231"/>
      <point x="277" y="152" type="curve" smooth="yes"/>
      <point x="277" y="43"/>
      <point x="375" y="0"/>
      <point x="481" y="0" type="curve" smooth="yes"/>
      <point x="591" y="0"/>
      <point x="685" y="46"/>
      <point x="685" y="154" type="curve" smooth="yes"/>
      <point x="685" y="234"/>
      <point x="631" y="278"/>
      <point x="631" y="372" type="curve" smooth="yes"/>
      <point x="631" y="437"/>
      <point x="659" y="483"/>
      <point x="729" y="483" type="curve" smooth="yes"/>
      <point x="782" y="483"/>
      <point x="832" y="457"/>
      <point x="832" y="376" type="curve" smooth="yes"/>
      <point x="832" y="343"/>
      <point x="824" y="306"/>
      <point x="807" y="268" type="curve"/>
      <point x="887" y="268" type="line"/>
      <point x="907" y="308"/>
      <point x="917" y="340"/>
      <point x="917" y="377" type="curve" smooth="yes"/>
      <point x="916" y="475"/>
      <point x="845" y="550"/>
      <point x="731" y="550" type="curve" smooth="yes"/>
      <point x="622" y="550"/>
      <point x="544" y="491"/>
      <point x="544" y="380" type="curve" smooth="yes"/>
      <point x="544" y="288"/>
      <point x="597" y="247"/>
      <point x="597" y="174" type="curve" smooth="yes"/>
      <point x="597" y="91"/>
      <point x="534" y="67"/>
      <point x="481" y="67" type="curve" smooth="yes"/>
      <point x="426" y="67"/>
      <point x="365" y="93"/>
      <point x="365" y="174" type="curve" smooth="yes"/>
      <point x="365" y="249"/>
      <point x="418" y="286"/>
      <point x="418" y="382" type="curve" smooth="yes"/>
      <point x="418" y="491"/>
      <point x="347" y="550"/>
      <point x="236" y="550" type="curve" smooth="yes"/>
      <point x="113" y="550"/>
      <point x="46" y="469"/>
      <point x="46" y="377" type="curve" smooth="yes"/>
      <point x="46" y="344"/>
      <point x="55" y="308"/>
    </contour>
  </outline>
</glyph>
<glyph name="nyaa_chakma.below" format="2">
  <outline>
    <contour>
      <point x="-120" y="-233" type="curve"/>
      <point x="-189" y="-250" type="line"/>
      <point x="-198" y="-266"/>
      <point x="-226" y="-285"/>
      <point x="-273" y="-285" type="curve" smooth="yes"/>
      <point x="-316" y="-285"/>
      <point x="-344" y="-268"/>
      <point x="-344" y="-243" type="curve" smooth="yes"/>
      <point x="-344" y="-180"/>
      <point x="-174" y="-165"/>
      <point x="-174" y="-73" type="curve" smooth="yes"/>
      <point x="-174" y="-19"/>
      <point x="-234" y="0"/>
      <point x="-288" y="0" type="curve" smooth="yes"/>
      <point x="-372" y="0"/>
      <point x="-434" y="-46"/>
      <point x="-440" y="-106" type="curve"/>
      <point x="-363" y="-94" type="line"/>
      <point x="-355" y="-74"/>
      <point x="-332" y="-60"/>
      <point x="-302" y="-60" type="curve" smooth="yes"/>
      <point x="-275" y="-60"/>
      <point x="-255" y="-72"/>
      <point x="-255" y="-89" type="curve" smooth="yes"/>
      <point x="-255" y="-138"/>
      <point x="-426" y="-156"/>
      <point x="-426" y="-253" type="curve" smooth="yes"/>
      <point x="-426" y="-316"/>
      <point x="-356" y="-345"/>
      <point x="-286" y="-345" type="curve" smooth="yes"/>
      <point x="-188" y="-345"/>
      <point x="-130" y="-289"/>
    </contour>
    <contour>
      <point x="-40" y="-4" type="curve"/>
      <point x="-102" y="-41" type="line"/>
      <point x="-79" y="-54"/>
      <point x="-69" y="-71"/>
      <point x="-69" y="-92" type="curve" smooth="yes"/>
      <point x="-69" y="-127"/>
      <point x="-99" y="-150"/>
      <point x="-143" y="-150" type="curve" smooth="yes"/>
      <point x="-187" y="-150"/>
      <point x="-209" y="-126"/>
      <point x="-219" y="-110" type="curve"/>
      <point x="-265" y="-146" type="line"/>
      <point x="-242" y="-174"/>
      <point x="-207" y="-202"/>
      <point x="-137" y="-202" type="curve" smooth="yes"/>
      <point x="-54" y="-202"/>
      <point x="5" y="-162"/>
      <point x="5" y="-91" type="curve" smooth="yes"/>
      <point x="5" y="-53"/>
      <point x="-10" y="-25"/>
    </contour>
  </outline>
</glyph>
<glyph name="nyaa_raa.below" format="2">
  <advance width="756"/>
  <outline>
    <contour>
      <point x="179" y="-52" type="curve"/>
      <point x="99" y="-70" type="line"/>
      <point x="142" y="-159"/>
      <point x="228" y="-224"/>
      <point x="388" y="-224" type="curve" smooth="yes"/>
      <point x="586" y="-224"/>
      <point x="662" y="-125"/>
      <point x="662" y="-26" type="curve" smooth="yes"/>
      <point x="662" y="25"/>
      <point x="642" y="82"/>
      <point x="579" y="130" type="curve"/>
      <point x="519" y="80" type="line"/>
      <point x="566" y="40"/>
      <point x="581" y="1"/>
      <point x="581" y="-33" type="curve" smooth="yes"/>
      <point x="581" y="-105"/>
      <point x="514" y="-164"/>
      <point x="387" y="-164" type="curve" smooth="yes"/>
      <point x="248" y="-164"/>
      <point x="197" y="-88"/>
    </contour>
    <component base="nyaa_chakma"/>
  </outline>
</glyph>
<glyph name="oiMatra_anusvara" format="2">
  <outline>
    <contour>
      <point x="-251" y="591" type="line"/>
      <point x="-190" y="548" type="line"/>
      <point x="-13" y="937" type="line"/>
      <point x="-94" y="937" type="line"/>
    </contour>
    <contour>
      <point x="-374" y="633" type="line"/>
      <point x="-312" y="591" type="line"/>
      <point x="-185" y="870" type="line"/>
      <point x="-185" y="940" type="line"/>
      <point x="-752" y="940" type="line"/>
      <point x="-752" y="870" type="line"/>
      <point x="-266" y="870" type="line"/>
    </contour>
    <contour>
      <point x="-525" y="689" type="curve" smooth="yes"/>
      <point x="-488" y="689"/>
      <point x="-458" y="718"/>
      <point x="-458" y="756" type="curve" smooth="yes"/>
      <point x="-458" y="792"/>
      <point x="-488" y="822"/>
      <point x="-525" y="822" type="curve" smooth="yes"/>
      <point x="-562" y="822"/>
      <point x="-591" y="792"/>
      <point x="-591" y="756" type="curve" smooth="yes"/>
      <point x="-591" y="718"/>
      <point x="-562" y="689"/>
    </contour>
  </outline>
</glyph>
<glyph name="oiMatra_anusvara.short" format="2">
  <outline>
    <contour>
      <point x="-251" y="591" type="line"/>
      <point x="-190" y="548" type="line"/>
      <point x="-13" y="937" type="line"/>
      <point x="-94" y="937" type="line"/>
    </contour>
    <contour>
      <point x="-374" y="633" type="line"/>
      <point x="-312" y="591" type="line"/>
      <point x="-185" y="870" type="line"/>
      <point x="-185" y="940" type="line"/>
      <point x="-652" y="940" type="line"/>
      <point x="-652" y="870" type="line"/>
      <point x="-266" y="870" type="line"/>
    </contour>
    <contour>
      <point x="-485" y="689" type="curve" smooth="yes"/>
      <point x="-448" y="689"/>
      <point x="-418" y="718"/>
      <point x="-418" y="756" type="curve" smooth="yes"/>
      <point x="-418" y="792"/>
      <point x="-448" y="822"/>
      <point x="-485" y="822" type="curve" smooth="yes"/>
      <point x="-522" y="822"/>
      <point x="-551" y="792"/>
      <point x="-551" y="756" type="curve" smooth="yes"/>
      <point x="-551" y="718"/>
      <point x="-522" y="689"/>
    </contour>
  </outline>
</glyph>
<glyph name="oiMatra_candrabindu.short" format="2">
  <outline>
    <contour>
      <point x="-251" y="591" type="line"/>
      <point x="-190" y="548" type="line"/>
      <point x="4" y="977" type="line"/>
      <point x="-77" y="977" type="line"/>
    </contour>
    <contour>
      <point x="-374" y="633" type="line"/>
      <point x="-312" y="591" type="line"/>
      <point x="-168" y="910" type="line"/>
      <point x="-168" y="980" type="line"/>
      <point x="-639" y="980" type="line"/>
      <point x="-639" y="910" type="line"/>
      <point x="-249" y="910" type="line"/>
    </contour>
    <component base="candrabindu_chakma" xScale="0.7" yScale="0.7" xOffset="-327" yOffset="131"/>
  </outline>
</glyph>
<glyph name="oiMatra_chakma.short" format="2">
  <outline>
    <contour>
      <point x="-251" y="591" type="line"/>
      <point x="-190" y="548" type="line"/>
      <point x="-40" y="877" type="line"/>
      <point x="-121" y="877" type="line"/>
    </contour>
    <contour>
      <point x="-374" y="633" type="line"/>
      <point x="-312" y="591" type="line"/>
      <point x="-212" y="810" type="line"/>
      <point x="-212" y="880" type="line"/>
      <point x="-642" y="880" type="line"/>
      <point x="-642" y="810" type="line"/>
      <point x="-293" y="810" type="line"/>
    </contour>
  </outline>
</glyph>
<glyph name="oiMatra_maayyaa" format="2">
  <outline>
    <contour>
      <point x="-374" y="633" type="line"/>
      <point x="-312" y="591" type="line"/>
      <point x="-185" y="870" type="line"/>
      <point x="-185" y="940" type="line"/>
      <point x="-752" y="940" type="line"/>
      <point x="-752" y="870" type="line"/>
      <point x="-266" y="870" type="line"/>
    </contour>
    <contour>
      <point x="-12" y="940" type="line"/>
      <point x="-93" y="940" type="line"/>
      <point x="-251" y="591" type="line"/>
      <point x="-190" y="548" type="line"/>
    </contour>
    <component base="maayyaa_chakma" xOffset="-340" yOffset="20"/>
  </outline>
</glyph>
<glyph name="oiMatra_maayyaa.short" format="2">
  <guideline x="-419" y="940" angle="0"/>
  <outline>
    <contour>
      <point x="-374" y="633" type="line"/>
      <point x="-312" y="591" type="line"/>
      <point x="-185" y="870" type="line"/>
      <point x="-185" y="940" type="line"/>
      <point x="-653" y="940" type="line"/>
      <point x="-653" y="870" type="line"/>
      <point x="-266" y="870" type="line"/>
    </contour>
    <contour>
      <point x="-393" y="790" type="line"/>
      <point x="-613" y="790" type="line"/>
      <point x="-613" y="720" type="line"/>
      <point x="-393" y="720" type="line"/>
    </contour>
    <contour>
      <point x="-12" y="940" type="line"/>
      <point x="-93" y="940" type="line"/>
      <point x="-251" y="591" type="line"/>
      <point x="-190" y="548" type="line"/>
    </contour>
  </outline>
</glyph>
<glyph name="oiMatra_visarga" format="2">
  <outline>
    <contour>
      <point x="-251" y="591" type="line"/>
      <point x="-190" y="548" type="line"/>
      <point x="-12" y="940" type="line"/>
      <point x="-93" y="940" type="line"/>
    </contour>
    <contour>
      <point x="-374" y="633" type="line"/>
      <point x="-312" y="591" type="line"/>
      <point x="-185" y="870" type="line"/>
      <point x="-185" y="940" type="line"/>
      <point x="-752" y="940" type="line"/>
      <point x="-752" y="870" type="line"/>
      <point x="-266" y="870" type="line"/>
    </contour>
    <contour>
      <point x="-455" y="689" type="curve" smooth="yes"/>
      <point x="-418" y="689"/>
      <point x="-388" y="719"/>
      <point x="-388" y="757" type="curve" smooth="yes"/>
      <point x="-388" y="793"/>
      <point x="-418" y="823"/>
      <point x="-455" y="823" type="curve" smooth="yes"/>
      <point x="-491" y="823"/>
      <point x="-521" y="793"/>
      <point x="-521" y="757" type="curve" smooth="yes"/>
      <point x="-521" y="719"/>
      <point x="-491" y="689"/>
    </contour>
    <contour>
      <point x="-655" y="689" type="curve" smooth="yes"/>
      <point x="-618" y="689"/>
      <point x="-588" y="719"/>
      <point x="-588" y="757" type="curve" smooth="yes"/>
      <point x="-588" y="793"/>
      <point x="-618" y="823"/>
      <point x="-655" y="823" type="curve" smooth="yes"/>
      <point x="-691" y="823"/>
      <point x="-721" y="793"/>
      <point x="-721" y="757" type="curve" smooth="yes"/>
      <point x="-721" y="719"/>
      <point x="-691" y="689"/>
    </contour>
  </outline>
</glyph>
<glyph name="oiMatra_visarga.short" format="2">
  <outline>
    <contour>
      <point x="-251" y="591" type="line"/>
      <point x="-190" y="548" type="line"/>
      <point x="-12" y="940" type="line"/>
      <point x="-93" y="940" type="line"/>
    </contour>
    <contour>
      <point x="-374" y="633" type="line"/>
      <point x="-312" y="591" type="line"/>
      <point x="-185" y="870" type="line"/>
      <point x="-185" y="940" type="line"/>
      <point x="-684" y="940" type="line"/>
      <point x="-684" y="870" type="line"/>
      <point x="-266" y="870" type="line"/>
    </contour>
    <contour>
      <point x="-435" y="689" type="curve" smooth="yes"/>
      <point x="-398" y="689"/>
      <point x="-368" y="719"/>
      <point x="-368" y="757" type="curve" smooth="yes"/>
      <point x="-368" y="793"/>
      <point x="-398" y="823"/>
      <point x="-435" y="823" type="curve" smooth="yes"/>
      <point x="-471" y="823"/>
      <point x="-501" y="793"/>
      <point x="-501" y="757" type="curve" smooth="yes"/>
      <point x="-501" y="719"/>
      <point x="-471" y="689"/>
    </contour>
    <contour>
      <point x="-615" y="689" type="curve" smooth="yes"/>
      <point x="-578" y="689"/>
      <point x="-548" y="719"/>
      <point x="-548" y="757" type="curve" smooth="yes"/>
      <point x="-548" y="793"/>
      <point x="-578" y="823"/>
      <point x="-615" y="823" type="curve" smooth="yes"/>
      <point x="-651" y="823"/>
      <point x="-681" y="793"/>
      <point x="-681" y="757" type="curve" smooth="yes"/>
      <point x="-681" y="719"/>
      <point x="-651" y="689"/>
    </contour>
  </outline>
</glyph>
<glyph name="phaa_chakma.below" format="2">
  <outline>
    <contour>
      <point x="-34.972" y="-52.475" type="line"/>
      <point x="-56.487" y="-81.447"/>
      <point x="-88.744" y="-113"/>
      <point x="-121" y="-113" type="curve" smooth="yes"/>
      <point x="-144" y="-113"/>
      <point x="-159" y="-98"/>
      <point x="-159" y="-80" type="curve" smooth="yes"/>
      <point x="-159" y="-59"/>
      <point x="-140" y="-49"/>
      <point x="-122" y="-49" type="curve" smooth="yes"/>
      <point x="-89" y="-49"/>
      <point x="-68" y="-85"/>
      <point x="-68" y="-144" type="curve" smooth="yes"/>
      <point x="-68" y="-246"/>
      <point x="-126" y="-295"/>
      <point x="-198" y="-295" type="curve" smooth="yes"/>
      <point x="-270" y="-295"/>
      <point x="-332" y="-238"/>
      <point x="-332" y="-160" type="curve" smooth="yes"/>
      <point x="-332" y="-111"/>
      <point x="-307" y="-62"/>
      <point x="-267" y="-29" type="curve"/>
      <point x="-324" y="-3" type="line"/>
      <point x="-380" y="-37"/>
      <point x="-414" y="-99"/>
      <point x="-414" y="-165" type="curve" smooth="yes"/>
      <point x="-414" y="-272"/>
      <point x="-324" y="-355"/>
      <point x="-197" y="-355" type="curve" smooth="yes"/>
      <point x="-70" y="-355"/>
      <point x="14" y="-269"/>
      <point x="14" y="-153" type="curve" smooth="yes"/>
      <point x="14" y="-70"/>
      <point x="-28" y="0"/>
      <point x="-118" y="0" type="curve" smooth="yes"/>
      <point x="-175" y="0"/>
      <point x="-221" y="-30"/>
      <point x="-221" y="-85" type="curve" smooth="yes"/>
      <point x="-221" y="-136"/>
      <point x="-179" y="-162"/>
      <point x="-135" y="-162" type="curve" smooth="yes"/>
      <point x="-80.442" y="-162"/>
      <point x="-37.276" y="-121.945"/>
      <point x="-10.402" y="-88.17" type="curve"/>
    </contour>
  </outline>
</glyph>
<glyph name="raa.below_oMark.curve" format="2">
  <outline>
    <contour>
      <point x="-238" y="-72" type="curve"/>
      <point x="-329" y="-83" type="line"/>
      <point x="-337" y="-100"/>
      <point x="-349" y="-124"/>
      <point x="-349" y="-140" type="curve" smooth="yes"/>
      <point x="-349" y="-218"/>
      <point x="-430" y="-273"/>
      <point x="-521" y="-273" type="curve" smooth="yes"/>
      <point x="-606" y="-273"/>
      <point x="-663" y="-225"/>
      <point x="-683" y="-161" type="curve"/>
      <point x="-763" y="-179" type="line"/>
      <point x="-729" y="-288"/>
      <point x="-635" y="-333"/>
      <point x="-530" y="-333" type="curve" smooth="yes"/>
      <point x="-367" y="-333"/>
      <point x="-285" y="-242"/>
      <point x="-285" y="-145" type="curve" smooth="yes"/>
      <point x="-285" y="-115"/>
      <point x="-274" y="-106"/>
    </contour>
    <component base="oMark_chakma" xOffset="85" yOffset="-24"/>
  </outline>
</glyph>
<glyph name="raa.below_oMark" format="2">
  <outline>
    <contour>
      <point x="-799" y="-176" type="curve"/>
      <point x="-879" y="-194" type="line"/>
      <point x="-833" y="-294"/>
      <point x="-740" y="-348"/>
      <point x="-591" y="-348" type="curve" smooth="yes"/>
      <point x="-392" y="-348"/>
      <point x="-296" y="-275"/>
      <point x="-296" y="-164" type="curve" smooth="yes"/>
      <point x="-296" y="-139"/>
      <point x="-301" y="-96"/>
      <point x="-333" y="-56" type="curve"/>
      <point x="-345" y="-87" type="line"/>
      <point x="-362" y="-125"/>
      <point x="-362" y="-143"/>
      <point x="-362" y="-164" type="curve" smooth="yes"/>
      <point x="-362" y="-240"/>
      <point x="-464" y="-288"/>
      <point x="-582" y="-288" type="curve" smooth="yes"/>
      <point x="-720" y="-288"/>
      <point x="-778" y="-220"/>
    </contour>
    <component base="oMark_chakma" xOffset="74" yOffset="-9"/>
  </outline>
</glyph>
<glyph name="raa.below_uMatra" format="2">
  <outline>
    <contour>
      <point x="-529" y="-121" type="curve"/>
      <point x="-611" y="-121" type="line"/>
      <point x="-611" y="-204"/>
      <point x="-554" y="-283"/>
      <point x="-431" y="-283" type="curve" smooth="yes"/>
      <point x="-299" y="-283"/>
      <point x="-245" y="-193"/>
      <point x="-245" y="-65" type="curve" smooth="yes"/>
      <point x="-245" y="51" type="line"/>
      <point x="-327" y="51" type="line"/>
      <point x="-327" y="-65" type="line" smooth="yes"/>
      <point x="-327" y="-160"/>
      <point x="-366" y="-216"/>
      <point x="-435" y="-216" type="curve" smooth="yes"/>
      <point x="-492" y="-216"/>
      <point x="-529" y="-177"/>
    </contour>
    <contour>
      <point x="-49" y="-263" type="line"/>
      <point x="-49" y="-186" type="line"/>
      <point x="-116" y="-186" type="line"/>
      <point x="-116" y="51" type="line"/>
      <point x="-198" y="51" type="line"/>
      <point x="-198" y="-263" type="line"/>
    </contour>
  </outline>
</glyph>
<glyph name="raa_chakma.below_uuMatra" format="2">
  <outline>
    <contour>
      <point x="-627" y="-121" type="curve"/>
      <point x="-709" y="-121" type="line"/>
      <point x="-709" y="-204"/>
      <point x="-652" y="-283"/>
      <point x="-529" y="-283" type="curve" smooth="yes"/>
      <point x="-397" y="-283"/>
      <point x="-343" y="-193"/>
      <point x="-343" y="-65" type="curve" smooth="yes"/>
      <point x="-343" y="51" type="line"/>
      <point x="-425" y="51" type="line"/>
      <point x="-425" y="-65" type="line" smooth="yes"/>
      <point x="-425" y="-160"/>
      <point x="-460" y="-216"/>
      <point x="-529" y="-216" type="curve" smooth="yes"/>
      <point x="-586" y="-216"/>
      <point x="-627" y="-177"/>
    </contour>
    <contour>
      <point x="-225" y="51" type="line"/>
      <point x="-307" y="51" type="line"/>
      <point x="-307" y="-263" type="line"/>
      <point x="-225" y="-263" type="line"/>
    </contour>
    <contour>
      <point x="-40" y="-263" type="line"/>
      <point x="-40" y="-186" type="line"/>
      <point x="-107" y="-186" type="line"/>
      <point x="-107" y="51" type="line"/>
      <point x="-189" y="51" type="line"/>
      <point x="-189" y="-263" type="line"/>
    </contour>
  </outline>
</glyph>
<glyph name="saa_chakma.below" format="2">
  <outline>
    <contour>
      <point x="-272" y="-25" type="curve"/>
      <point x="-226" y="-73" type="line"/>
      <point x="-212" y="-65"/>
      <point x="-196" y="-60"/>
      <point x="-178" y="-60" type="curve" smooth="yes"/>
      <point x="-122" y="-60"/>
      <point x="-76" y="-110"/>
      <point x="-76" y="-175" type="curve" smooth="yes"/>
      <point x="-76" y="-240"/>
      <point x="-123" y="-293"/>
      <point x="-187" y="-293" type="curve" smooth="yes"/>
      <point x="-241" y="-293"/>
      <point x="-292" y="-255"/>
      <point x="-312" y="-191" type="curve"/>
      <point x="-348" y="-249" type="line"/>
      <point x="-324" y="-307"/>
      <point x="-268" y="-353"/>
      <point x="-184" y="-353" type="curve" smooth="yes"/>
      <point x="-69" y="-353"/>
      <point x="6" y="-265"/>
      <point x="6" y="-171" type="curve" smooth="yes"/>
      <point x="6" y="-79"/>
      <point x="-66" y="0"/>
      <point x="-177" y="0" type="curve" smooth="yes"/>
      <point x="-213" y="0"/>
      <point x="-246" y="-9"/>
    </contour>
    <component base="daa_chakma.below" xOffset="-276"/>
  </outline>
</glyph>
<glyph name="section_chakma.alt" format="2">
  <advance width="1063"/>
  <outline>
    <contour>
      <point x="527" y="571" type="curve"/>
      <point x="519" y="629" type="line"/>
      <point x="328" y="617"/>
      <point x="201" y="472"/>
      <point x="201" y="311" type="curve" smooth="yes"/>
      <point x="201" y="162"/>
      <point x="330" y="44"/>
      <point x="508" y="44" type="curve" smooth="yes"/>
      <point x="690" y="44"/>
      <point x="809" y="168"/>
      <point x="809" y="316" type="curve" smooth="yes"/>
      <point x="809" y="407"/>
      <point x="736" y="511"/>
      <point x="589" y="511" type="curve" smooth="yes"/>
      <point x="455" y="511"/>
      <point x="354" y="424"/>
      <point x="354" y="321" type="curve" smooth="yes"/>
      <point x="354" y="232"/>
      <point x="428" y="177"/>
      <point x="513" y="177" type="curve" smooth="yes"/>
      <point x="600" y="177"/>
      <point x="655" y="239"/>
      <point x="655" y="302" type="curve" smooth="yes"/>
      <point x="655" y="355"/>
      <point x="615" y="389"/>
      <point x="564" y="389" type="curve" smooth="yes"/>
      <point x="506" y="389"/>
      <point x="473" y="346"/>
      <point x="460" y="311" type="curve"/>
      <point x="501" y="294" type="line"/>
      <point x="511" y="313"/>
      <point x="524" y="339"/>
      <point x="555" y="339" type="curve" smooth="yes"/>
      <point x="582" y="339"/>
      <point x="596" y="319"/>
      <point x="596" y="295" type="curve" smooth="yes"/>
      <point x="596" y="260"/>
      <point x="567" y="229"/>
      <point x="515" y="229" type="curve" smooth="yes"/>
      <point x="451" y="229"/>
      <point x="418" y="271"/>
      <point x="418" y="321" type="curve" smooth="yes"/>
      <point x="418" y="398"/>
      <point x="493" y="451"/>
      <point x="584" y="451" type="curve" smooth="yes"/>
      <point x="678" y="451"/>
      <point x="729" y="394"/>
      <point x="729" y="314" type="curve" smooth="yes"/>
      <point x="729" y="213"/>
      <point x="646" y="111"/>
      <point x="512" y="111" type="curve" smooth="yes"/>
      <point x="387" y="111"/>
      <point x="281" y="195"/>
      <point x="281" y="323" type="curve" smooth="yes"/>
      <point x="281" y="461"/>
      <point x="391" y="563"/>
    </contour>
    <contour>
      <point x="288" y="501" type="curve"/>
      <point x="321" y="552" type="line"/>
      <point x="272" y="594"/>
      <point x="232" y="612"/>
      <point x="191" y="612" type="curve" smooth="yes"/>
      <point x="121" y="612"/>
      <point x="68" y="560"/>
      <point x="68" y="512" type="curve" smooth="yes"/>
      <point x="68" y="481"/>
      <point x="91" y="458"/>
      <point x="119" y="458" type="curve" smooth="yes"/>
      <point x="147" y="458"/>
      <point x="170" y="481"/>
      <point x="170" y="511" type="curve" smooth="yes"/>
      <point x="170" y="541"/>
      <point x="147" y="556"/>
      <point x="127" y="556" type="curve" smooth="yes"/>
      <point x="114" y="556"/>
      <point x="101" y="549"/>
      <point x="89" y="536" type="curve"/>
      <point x="101" y="485" type="line"/>
      <point x="108" y="517"/>
      <point x="141" y="554"/>
      <point x="182" y="554" type="curve" smooth="yes"/>
      <point x="210" y="554"/>
      <point x="245" y="537"/>
    </contour>
    <contour>
      <point x="250" y="222" type="curve"/>
      <point x="262" y="280" type="line"/>
      <point x="238" y="285"/>
      <point x="210" y="288"/>
      <point x="191" y="288" type="curve" smooth="yes"/>
      <point x="101" y="288"/>
      <point x="50" y="225"/>
      <point x="50" y="166" type="curve" smooth="yes"/>
      <point x="50" y="126"/>
      <point x="73" y="103"/>
      <point x="101" y="103" type="curve" smooth="yes"/>
      <point x="129" y="103"/>
      <point x="152" y="126"/>
      <point x="152" y="154" type="curve" smooth="yes"/>
      <point x="152" y="182"/>
      <point x="128" y="204"/>
      <point x="103" y="204" type="curve" smooth="yes"/>
      <point x="83" y="204"/>
      <point x="69" y="189"/>
      <point x="62" y="165" type="curve"/>
      <point x="92" y="121" type="line"/>
      <point x="88" y="135"/>
      <point x="88" y="152"/>
      <point x="94" y="172" type="curve" smooth="yes"/>
      <point x="105" y="207"/>
      <point x="131" y="230"/>
      <point x="183" y="230" type="curve" smooth="yes"/>
      <point x="200" y="230"/>
      <point x="226" y="227"/>
    </contour>
    <contour>
      <point x="475" y="66" type="curve"/>
      <point x="420" y="87" type="line"/>
      <point x="401" y="46"/>
      <point x="391" y="12"/>
      <point x="391" y="-19" type="curve" smooth="yes"/>
      <point x="391" y="-92"/>
      <point x="444" y="-146"/>
      <point x="501" y="-146" type="curve" smooth="yes"/>
      <point x="539" y="-146"/>
      <point x="560" y="-123"/>
      <point x="560" y="-96" type="curve" smooth="yes"/>
      <point x="560" y="-67"/>
      <point x="537" y="-44"/>
      <point x="509" y="-44" type="curve" smooth="yes"/>
      <point x="481" y="-44"/>
      <point x="458" y="-68"/>
      <point x="458" y="-94" type="curve" smooth="yes"/>
      <point x="458" y="-116"/>
      <point x="473" y="-128"/>
      <point x="487" y="-133" type="curve"/>
      <point x="537" y="-112" type="line"/>
      <point x="492" y="-112"/>
      <point x="448" y="-81"/>
      <point x="448" y="-27" type="curve" smooth="yes"/>
      <point x="448" y="-3"/>
      <point x="457" y="28"/>
    </contour>
    <contour>
      <point x="721" y="142" type="curve"/>
      <point x="679" y="107" type="line"/>
      <point x="713" y="19"/>
      <point x="765" y="-22"/>
      <point x="822" y="-22" type="curve" smooth="yes"/>
      <point x="867" y="-22"/>
      <point x="920" y="6"/>
      <point x="920" y="51" type="curve" smooth="yes"/>
      <point x="920" y="81"/>
      <point x="897" y="104"/>
      <point x="869" y="104" type="curve" smooth="yes"/>
      <point x="841" y="104"/>
      <point x="818" y="81"/>
      <point x="818" y="53" type="curve" smooth="yes"/>
      <point x="818" y="30"/>
      <point x="833" y="7"/>
      <point x="859" y="7" type="curve" smooth="yes"/>
      <point x="867" y="7"/>
      <point x="875" y="9"/>
      <point x="884" y="12" type="curve"/>
      <point x="893" y="67" type="line"/>
      <point x="878" y="55"/>
      <point x="850" y="35"/>
      <point x="821" y="35" type="curve" smooth="yes"/>
      <point x="773" y="35"/>
      <point x="739" y="88"/>
    </contour>
    <contour>
      <point x="801" y="336" type="curve"/>
      <point x="783" y="279" type="line"/>
      <point x="821" y="264"/>
      <point x="853" y="257"/>
      <point x="881" y="257" type="curve" smooth="yes"/>
      <point x="956" y="257"/>
      <point x="1013" y="309"/>
      <point x="1013" y="371" type="curve" smooth="yes"/>
      <point x="1013" y="415"/>
      <point x="983" y="426"/>
      <point x="963" y="426" type="curve" smooth="yes"/>
      <point x="933" y="426"/>
      <point x="911" y="402"/>
      <point x="911" y="376" type="curve" smooth="yes"/>
      <point x="911" y="347"/>
      <point x="937" y="327"/>
      <point x="958" y="327" type="curve" smooth="yes"/>
      <point x="982" y="327"/>
      <point x="996" y="352"/>
      <point x="1001" y="373" type="curve"/>
      <point x="974" y="410" type="line"/>
      <point x="978" y="361"/>
      <point x="946" y="315"/>
      <point x="892" y="315" type="curve" smooth="yes"/>
      <point x="869" y="315"/>
      <point x="841" y="320"/>
    </contour>
    <contour>
      <point x="639" y="492" type="curve"/>
      <point x="684" y="458" type="line"/>
      <point x="734" y="506"/>
      <point x="758" y="554"/>
      <point x="758" y="600" type="curve" smooth="yes"/>
      <point x="758" y="660"/>
      <point x="720" y="709"/>
      <point x="669" y="709" type="curve" smooth="yes"/>
      <point x="635" y="709"/>
      <point x="612" y="686"/>
      <point x="612" y="658" type="curve" smooth="yes"/>
      <point x="612" y="630"/>
      <point x="634" y="607"/>
      <point x="663" y="607" type="curve" smooth="yes"/>
      <point x="704" y="607"/>
      <point x="728" y="651"/>
      <point x="692" y="686" type="curve"/>
      <point x="642" y="679" type="line"/>
      <point x="675" y="666"/>
      <point x="702" y="634"/>
      <point x="702" y="600" type="curve" smooth="yes"/>
      <point x="702" y="570"/>
      <point x="683" y="534"/>
    </contour>
  </outline>
</glyph>
<glyph name="taa_chakma.below" format="2">
  <outline>
    <contour>
      <point x="-361" y="-122" type="curve"/>
      <point x="-289" y="-179" type="line"/>
      <point x="-284" y="-104"/>
      <point x="-243" y="-60"/>
      <point x="-189" y="-60" type="curve" smooth="yes"/>
      <point x="-131" y="-60"/>
      <point x="-85" y="-111"/>
      <point x="-85" y="-175" type="curve" smooth="yes"/>
      <point x="-85" y="-239"/>
      <point x="-131" y="-292"/>
      <point x="-189" y="-292" type="curve" smooth="yes"/>
      <point x="-205" y="-292"/>
      <point x="-220" y="-288"/>
      <point x="-234" y="-280" type="curve"/>
      <point x="-276" y="-332" type="line"/>
      <point x="-252" y="-345"/>
      <point x="-222" y="-352"/>
      <point x="-189" y="-352" type="curve" smooth="yes"/>
      <point x="-74" y="-352"/>
      <point x="-3" y="-267"/>
      <point x="-3" y="-175" type="curve" smooth="yes"/>
      <point x="-3" y="-83"/>
      <point x="-74" y="0"/>
      <point x="-189" y="0" type="curve" smooth="yes"/>
      <point x="-277" y="0"/>
      <point x="-338" y="-49"/>
    </contour>
    <component base="waa_chakma.below" xOffset="-234"/>
  </outline>
</glyph>
<glyph name="ttaa_yyaa.below" format="2">
  <advance width="1127"/>
  <outline>
    <contour>
      <point x="754" y="53" type="curve"/>
      <point x="708" y="4" type="line"/>
      <point x="744" y="-49"/>
      <point x="806" y="-97"/>
      <point x="889" y="-97" type="curve" smooth="yes"/>
      <point x="990" y="-97"/>
      <point x="1067" y="-26"/>
      <point x="1067" y="77" type="curve" smooth="yes"/>
      <point x="1067" y="700" type="line"/>
      <point x="977" y="700" type="line"/>
      <point x="977" y="93" type="line" smooth="yes"/>
      <point x="977" y="20"/>
      <point x="934" y="-30"/>
      <point x="879" y="-30" type="curve" smooth="yes"/>
      <point x="823" y="-30"/>
      <point x="776" y="22"/>
    </contour>
    <component base="ttaa_chakma"/>
  </outline>
</glyph>
<glyph name="uMatra_chakma.alt" format="2">
  <outline>
    <contour>
      <point x="-166" y="-263" type="line"/>
      <point x="-166" y="-186" type="line"/>
      <point x="-235" y="-186" type="line"/>
      <point x="-235" y="142" type="line"/>
      <point x="-317" y="91" type="line"/>
      <point x="-317" y="-263" type="line"/>
    </contour>
  </outline>
</glyph>
<glyph name="u_chakma.below" format="2">
  <outline>
    <contour>
      <point x="-44" y="-224" type="curve"/>
      <point x="-128" y="-243" type="line"/>
      <point x="-132" y="-260"/>
      <point x="-149" y="-305"/>
      <point x="-233" y="-305" type="curve" smooth="yes"/>
      <point x="-266" y="-305"/>
      <point x="-311" y="-298"/>
      <point x="-311" y="-266" type="curve" smooth="yes"/>
      <point x="-311" y="-240"/>
      <point x="-280" y="-231"/>
      <point x="-218" y="-215" type="curve" smooth="yes"/>
      <point x="-138" y="-194"/>
      <point x="-50" y="-168"/>
      <point x="-50" y="-95" type="curve" smooth="yes"/>
      <point x="-50" y="-26"/>
      <point x="-128" y="0"/>
      <point x="-206" y="0" type="curve" smooth="yes"/>
      <point x="-324" y="0"/>
      <point x="-383" y="-55"/>
      <point x="-383" y="-136" type="curve"/>
      <point x="-306" y="-124" type="line"/>
      <point x="-303" y="-100"/>
      <point x="-286" y="-60"/>
      <point x="-207" y="-60" type="curve" smooth="yes"/>
      <point x="-160" y="-60"/>
      <point x="-132" y="-73"/>
      <point x="-132" y="-102" type="curve" smooth="yes"/>
      <point x="-132" y="-130"/>
      <point x="-157" y="-140"/>
      <point x="-224" y="-161" type="curve" smooth="yes"/>
      <point x="-310" y="-188"/>
      <point x="-393" y="-207"/>
      <point x="-393" y="-275" type="curve" smooth="yes"/>
      <point x="-393" y="-342"/>
      <point x="-310" y="-365"/>
      <point x="-227" y="-365" type="curve" smooth="yes"/>
      <point x="-72" y="-365"/>
      <point x="-44" y="-288"/>
    </contour>
  </outline>
</glyph>
<glyph name="uuMatra_chakma.alt" format="2">
  <outline>
    <contour>
      <point x="-235" y="-273" type="line"/>
      <point x="-153" y="-273" type="line"/>
      <point x="-264" y="52" type="line"/>
      <point x="-378" y="52" type="line"/>
      <point x="-489" y="-273" type="line"/>
      <point x="-407" y="-273" type="line"/>
      <point x="-318" y="6" type="line"/>
      <point x="-334" y="-5" type="line"/>
      <point x="-308" y="-5" type="line"/>
      <point x="-324" y="6" type="line"/>
    </contour>
  </outline>
</glyph>
<glyph name="waa_chakma.below" format="2">
  <outline>
    <contour>
      <point x="-235" y="0" type="curve" smooth="yes"/>
      <point x="-345" y="0"/>
      <point x="-413" y="-83"/>
      <point x="-413" y="-175" type="curve" smooth="yes"/>
      <point x="-413" y="-267"/>
      <point x="-345" y="-352"/>
      <point x="-235" y="-352" type="curve" smooth="yes"/>
      <point x="-125" y="-352"/>
      <point x="-54" y="-267"/>
      <point x="-54" y="-175" type="curve" smooth="yes"/>
      <point x="-54" y="-83"/>
      <point x="-125" y="0"/>
    </contour>
    <contour>
      <point x="-235" y="-292" type="curve" smooth="yes"/>
      <point x="-298" y="-292"/>
      <point x="-331" y="-239"/>
      <point x="-331" y="-175" type="curve" smooth="yes"/>
      <point x="-331" y="-111"/>
      <point x="-298" y="-60"/>
      <point x="-235" y="-60" type="curve" smooth="yes"/>
      <point x="-172" y="-60"/>
      <point x="-136" y="-111"/>
      <point x="-136" y="-175" type="curve" smooth="yes"/>
      <point x="-136" y="-239"/>
      <point x="-172" y="-292"/>
    </contour>
  </outline>
</glyph>
<glyph name="yaa_chakma.alt" format="2">
  <advance width="605"/>
  <outline>
    <contour>
      <point x="199" y="291" type="curve"/>
      <point x="244" y="345" type="line"/>
      <point x="192" y="355"/>
      <point x="170" y="390"/>
      <point x="170" y="425" type="curve" smooth="yes"/>
      <point x="170" y="466"/>
      <point x="200" y="492"/>
      <point x="237" y="492" type="curve" smooth="yes"/>
      <point x="251" y="492"/>
      <point x="271" y="488"/>
      <point x="292" y="473" type="curve"/>
      <point x="330" y="533" type="line"/>
      <point x="312" y="543"/>
      <point x="285" y="556"/>
      <point x="242" y="556" type="curve" smooth="yes"/>
      <point x="153" y="556"/>
      <point x="80" y="496"/>
      <point x="80" y="417" type="curve" smooth="yes"/>
      <point x="80" y="353"/>
      <point x="129" y="312"/>
    </contour>
    <contour>
      <point x="398" y="419" type="curve" smooth="yes"/>
      <point x="257" y="419"/>
      <point x="86" y="303"/>
      <point x="86" y="149" type="curve" smooth="yes"/>
      <point x="86" y="35"/>
      <point x="189" y="-10"/>
      <point x="284" y="-10" type="curve" smooth="yes"/>
      <point x="407" y="-10"/>
      <point x="482" y="65"/>
      <point x="516" y="149" type="curve"/>
      <point x="449" y="158" type="line"/>
      <point x="424" y="98"/>
      <point x="366" y="57"/>
      <point x="296" y="57" type="curve" smooth="yes"/>
      <point x="236" y="57"/>
      <point x="176" y="87"/>
      <point x="176" y="163" type="curve" smooth="yes"/>
      <point x="176" y="269"/>
      <point x="286" y="352"/>
      <point x="372" y="352" type="curve" smooth="yes"/>
      <point x="407" y="352"/>
      <point x="418" y="338"/>
      <point x="418" y="324" type="curve" smooth="yes"/>
      <point x="418" y="306"/>
      <point x="401" y="290"/>
      <point x="383" y="280" type="curve"/>
      <point x="416" y="233" type="line"/>
      <point x="451" y="253"/>
      <point x="508" y="296"/>
      <point x="508" y="345" type="curve" smooth="yes"/>
      <point x="508" y="384"/>
      <point x="472" y="419"/>
    </contour>
  </outline>
</glyph>
<glyph name="yyaa_chakma.below" format="2">
  <outline>
    <contour>
      <point x="-114" y="135" type="curve"/>
      <point x="-160" y="86" type="line"/>
      <point x="-124" y="33"/>
      <point x="-62" y="-15"/>
      <point x="21" y="-15" type="curve" smooth="yes"/>
      <point x="122" y="-15"/>
      <point x="199" y="56"/>
      <point x="199" y="159" type="curve" smooth="yes"/>
      <point x="199" y="700" type="line"/>
      <point x="109" y="700" type="line"/>
      <point x="109" y="175" type="line" smooth="yes"/>
      <point x="109" y="102"/>
      <point x="66" y="52"/>
      <point x="11" y="52" type="curve" smooth="yes"/>
      <point x="-45" y="52"/>
      <point x="-92" y="104"/>
    </contour>
  </outline>
</glyph>
